<svg xmlns="http://www.w3.org/2000/svg" viewBox="0 0 272 374.32"><title>questionRecurso 11024px</title><g style="isolation:isolate"><path d="M145.28,48.51s-.35-.87-.53-.65c-.17-.22-.52.65-.52.65C114.53,85.34,65,85.7,41.52,83.47a11.91,11.91,0,0,0-13,11.87V210.58a123.46,123.46,0,0,0,39.35,90.71c31.4,29,69.66,43.49,76.4,45.9v.36l.52-.18.53.18v-.36c6.74-2.41,45-16.86,76.4-45.9A123.46,123.46,0,0,0,261,210.58V95.34a11.91,11.91,0,0,0-13-11.87C224.55,85.7,175,85.34,145.28,48.51Z" style="fill:none;stroke:#c0ebf6;stroke-miterlimit:10;stroke-width:13.5953px;opacity:0.66"/><path d="M144.75,308.27c-13-5.82-34.25-16.9-52.31-33.6a87.38,87.38,0,0,1-27.71-64.09V120.35a170.27,170.27,0,0,0,48.33-8.45,134.56,134.56,0,0,0,31.69-15.38,134.82,134.82,0,0,0,31.7,15.38,170.27,170.27,0,0,0,48.33,8.45v90.23a87.38,87.38,0,0,1-27.71,64.09C179,291.37,157.74,302.45,144.75,308.27Z" style="fill:none;stroke:#c0ebf6;stroke-miterlimit:10;stroke-width:10.8763px;opacity:0.66"/><ellipse cx="166.77" cy="367.07" rx="74.32" ry="7.25" style="fill:#c0ebf6"/><ellipse cx="22.66" cy="368.13" rx="22.66" ry="2.87" style="fill:#c0ebf6"/><path d="M98.43,104.27h34.9a5.33,5.33,0,0,1,5.33,5.33V300.77a0,0,0,0,1,0,0H93.09a0,0,0,0,1,0,0V109.61a5.33,5.33,0,0,1,5.33-5.33Z" transform="translate(112.97 -30.79) rotate(29.06)" style="fill:#f6f6f6;opacity:0.8"/><path d="M87.65,309l-47.3-26.29A5.68,5.68,0,0,1,38.14,275h0a5.69,5.69,0,0,1,7.74-2.21l47.3,26.28a5.7,5.7,0,0,1,2.21,7.75h0A5.69,5.69,0,0,1,87.65,309Z" style="fill:#f6f6f6"/><path d="M171.07,120.8l-14.93-8.31L170,87.6l7.29-5.33a5.5,5.5,0,0,1,5.91-.36h0A5.5,5.5,0,0,1,186,87.38l-1.05,8.52Z" style="fill:#2f4260"/><rect x="154.33" y="113.98" width="19.93" height="2.85" transform="translate(76.75 -65.28) rotate(29.06)" style="fill:#2f4260"/><polygon points="172.46 118.31 184.91 95.9 186.41 83.71 183.92 82.32 182.42 94.52 169.97 116.92 171.21 117.61 169.83 120.1 171.07 120.8 172.32 121.49 173.7 119 172.46 118.31" style="fill:#2f4260;opacity:0.42;mix-blend-mode:multiply"/><polygon points="166.99 112.01 165.75 111.32 225.24 4.29 229.25 0 166.99 112.01" style="fill:#2f4260"/><path d="M96.78,148.1h89.68a0,0,0,0,1,0,0v34.17a0,0,0,0,1,0,0H96.78a10,10,0,0,1-10-10V158.09A10,10,0,0,1,96.78,148.1Z" transform="translate(347.38 126.01) rotate(119.06)" style="fill:#5bd3f4"/><path d="M153.77,143.76a8.54,8.54,0,1,1-3.32-11.62A8.55,8.55,0,0,1,153.77,143.76Z" style="fill:#47cbea;opacity:0.4;mix-blend-mode:multiply"/><path d="M137.72,190.23a5.7,5.7,0,1,1-2.21-7.75A5.7,5.7,0,0,1,137.72,190.23Z" style="fill:#94cdba;opacity:0.4;mix-blend-mode:multiply"/><path d="M151.83,159a2.85,2.85,0,1,1-1.1-3.87A2.85,2.85,0,0,1,151.83,159Z" style="fill:#47cbea;opacity:0.4;mix-blend-mode:multiply"/><path d="M135.73,163.14a2.85,2.85,0,1,1-3.51,2A2.85,2.85,0,0,1,135.73,163.14Z" style="fill:#47cbea;opacity:0.4;mix-blend-mode:multiply"/><path d="M122.72,201.49a1.58,1.58,0,1,1-2,1.09A1.57,1.57,0,0,1,122.72,201.49Z" style="fill:#47cbea;opacity:0.4;mix-blend-mode:multiply"/><path d="M117.53,198.55a3.16,3.16,0,1,1-1.23-4.3A3.17,3.17,0,0,1,117.53,198.55Z" style="fill:#47cbea;opacity:0.4;mix-blend-mode:multiply"/><rect x="101.84" y="197.88" width="14.24" height="34.17" transform="translate(-131.87 205.78) rotate(-60.94)" style="fill:#2f4260"/><rect x="60.34" y="211.33" width="14.24" height="156.63" transform="translate(149.2 3.7) rotate(29.06)" style="fill:#f6f6f6;opacity:0.99"/><rect x="13.43" y="357.54" width="28.48" height="5.7" transform="translate(178.56 31.94) rotate(29.06)" style="fill:#f6f6f6"/><rect x="67.23" y="213.12" width="6.88" height="156.63" transform="translate(150.47 2.37) rotate(29.06)" style="fill:#ccc;opacity:0.15;mix-blend-mode:multiply"/><path d="M176.37,123.74l-10.94-6.08a5.33,5.33,0,0,1,2.07,7.25L74.64,292l10.93,6.08L178.44,131A5.34,5.34,0,0,0,176.37,123.74Z" style="fill:#ccc;opacity:0.42;mix-blend-mode:multiply"/><path d="M155.16,112l3.47,1.93a5.34,5.34,0,0,0-7.26,2.07L58.51,283,55,281.11,147.91,114A5.33,5.33,0,0,1,155.16,112Z" style="fill:#f6f6f6;opacity:0.63;mix-blend-mode:screen"/><line x1="138.28" y1="118.86" x2="150.73" y2="125.78" style="fill:none;stroke:#f6f6f6;stroke-linecap:round;stroke-miterlimit:10;stroke-width:0.6315400000000001px;opacity:0.99"/><line x1="134.96" y1="124.84" x2="144.92" y2="130.37" style="fill:none;stroke:#f6f6f6;stroke-linecap:round;stroke-miterlimit:10;stroke-width:0.6315400000000001px;opacity:0.99"/><line x1="131.64" y1="130.81" x2="141.6" y2="136.35" style="fill:none;stroke:#f6f6f6;stroke-linecap:round;stroke-miterlimit:10;stroke-width:0.6315400000000001px;opacity:0.99"/><line x1="128.32" y1="136.79" x2="138.28" y2="142.32" style="fill:none;stroke:#f6f6f6;stroke-linecap:round;stroke-miterlimit:10;stroke-width:0.6315400000000001px;opacity:0.99"/><line x1="125" y1="142.76" x2="137.45" y2="149.68" style="fill:none;stroke:#f6f6f6;stroke-linecap:round;stroke-miterlimit:10;stroke-width:0.6315400000000001px;opacity:0.99"/><line x1="121.68" y1="148.73" x2="131.64" y2="154.27" style="fill:none;stroke:#f6f6f6;stroke-linecap:round;stroke-miterlimit:10;stroke-width:0.6315400000000001px;opacity:0.99"/><line x1="118.36" y1="154.71" x2="128.32" y2="160.24" style="fill:none;stroke:#f6f6f6;stroke-linecap:round;stroke-miterlimit:10;stroke-width:0.6315400000000001px;opacity:0.99"/><line x1="115.04" y1="160.68" x2="125" y2="166.22" style="fill:none;stroke:#f6f6f6;stroke-linecap:round;stroke-miterlimit:10;stroke-width:0.6315400000000001px;opacity:0.99"/><line x1="111.72" y1="166.66" x2="121.68" y2="172.19" style="fill:none;stroke:#f6f6f6;stroke-linecap:round;stroke-miterlimit:10;stroke-width:0.6315400000000001px;opacity:0.99"/><line x1="108.4" y1="172.63" x2="120.85" y2="179.55" style="fill:none;stroke:#f6f6f6;stroke-linecap:round;stroke-miterlimit:10;stroke-width:0.6315400000000001px;opacity:0.99"/><line x1="105.08" y1="178.6" x2="115.04" y2="184.14" style="fill:none;stroke:#f6f6f6;stroke-linecap:round;stroke-miterlimit:10;stroke-width:0.6315400000000001px;opacity:0.99"/><line x1="101.76" y1="184.58" x2="111.72" y2="190.11" style="fill:none;stroke:#f6f6f6;stroke-linecap:round;stroke-miterlimit:10;stroke-width:0.6315400000000001px;opacity:0.99"/><line x1="98.44" y1="190.55" x2="108.4" y2="196.09" style="fill:none;stroke:#f6f6f6;stroke-linecap:round;stroke-miterlimit:10;stroke-width:0.6315400000000001px;opacity:0.99"/><line x1="95.12" y1="196.53" x2="107.57" y2="203.44" style="fill:none;stroke:#f6f6f6;stroke-linecap:round;stroke-miterlimit:10;stroke-width:0.6315400000000001px;opacity:0.99"/><line x1="91.8" y1="202.5" x2="101.76" y2="208.03" style="fill:none;stroke:#f6f6f6;stroke-linecap:round;stroke-miterlimit:10;stroke-width:0.6315400000000001px;opacity:0.99"/><line x1="88.48" y1="208.47" x2="98.44" y2="214.01" style="fill:none;stroke:#f6f6f6;stroke-linecap:round;stroke-miterlimit:10;stroke-width:0.6315400000000001px;opacity:0.99"/><line x1="85.16" y1="214.45" x2="95.12" y2="219.98" style="fill:none;stroke:#f6f6f6;stroke-linecap:round;stroke-miterlimit:10;stroke-width:0.6315400000000001px;opacity:0.99"/><line x1="81.84" y1="220.42" x2="94.29" y2="227.34" style="fill:none;stroke:#f6f6f6;stroke-linecap:round;stroke-miterlimit:10;stroke-width:0.6315400000000001px;opacity:0.99"/><line x1="78.52" y1="226.4" x2="88.48" y2="231.93" style="fill:none;stroke:#f6f6f6;stroke-linecap:round;stroke-miterlimit:10;stroke-width:0.6315400000000001px;opacity:0.99"/><line x1="75.2" y1="232.37" x2="85.16" y2="237.9" style="fill:none;stroke:#f6f6f6;stroke-linecap:round;stroke-miterlimit:10;stroke-width:0.6315400000000001px;opacity:0.99"/><line x1="71.88" y1="238.34" x2="81.84" y2="243.88" style="fill:none;stroke:#f6f6f6;stroke-linecap:round;stroke-miterlimit:10;stroke-width:0.6315400000000001px;opacity:0.99"/><line x1="68.56" y1="244.32" x2="81.01" y2="251.23" style="fill:none;stroke:#f6f6f6;stroke-linecap:round;stroke-miterlimit:10;stroke-width:0.6315400000000001px;opacity:0.99"/><line x1="65.24" y1="250.29" x2="75.2" y2="255.83" style="fill:none;stroke:#f6f6f6;stroke-linecap:round;stroke-miterlimit:10;stroke-width:0.6315400000000001px;opacity:0.99"/><line x1="61.92" y1="256.27" x2="71.88" y2="261.8" style="fill:none;stroke:#f6f6f6;stroke-linecap:round;stroke-miterlimit:10;stroke-width:0.6315400000000001px;opacity:0.99"/><line x1="58.6" y1="262.24" x2="68.56" y2="267.77" style="fill:none;stroke:#f6f6f6;stroke-linecap:round;stroke-miterlimit:10;stroke-width:0.6315400000000001px;opacity:0.99"/><line x1="55.28" y1="268.21" x2="67.73" y2="275.13" style="fill:none;stroke:#f6f6f6;stroke-linecap:round;stroke-miterlimit:10;stroke-width:0.6315400000000001px;opacity:0.99"/><path d="M198.83,210.05V196.58H132.44v13.76a10.2,10.2,0,0,1-3.83,8l-12.24,9.79a12.47,12.47,0,0,0-4.68,9.74v123a10,10,0,0,0,10,10h89.94a10,10,0,0,0,10-10V238.2a12.48,12.48,0,0,0-5.14-10.09L203,218.31A10.21,10.21,0,0,1,198.83,210.05Z" style="fill:#f6f6f6;opacity:0.8"/><path d="M117.92,238.07h97.51a0,0,0,0,1,0,0v110.6a9.73,9.73,0,0,1-9.73,9.73H127.65a9.73,9.73,0,0,1-9.73-9.73V238.07A0,0,0,0,1,117.92,238.07Z" style="fill:#5bd3f4"/><g style="opacity:0.51"><circle cx="142.81" cy="250.52" r="8.3" transform="translate(-127.35 351.36) rotate(-80.78)" style="fill:#47cbea;mix-blend-mode:multiply"/><circle cx="194.68" cy="277.49" r="8.3" transform="translate(-139.2 218.94) rotate(-45)" style="fill:#47cbea;mix-blend-mode:multiply"/><circle cx="153.19" cy="318.99" r="8.3" style="fill:#94cdba;mix-blend-mode:multiply"/><circle cx="176.01" cy="308.61" r="8.3" style="fill:#94cdba;mix-blend-mode:multiply"/><circle cx="166.67" cy="268.16" r="3.11" style="fill:#94cdba;mix-blend-mode:multiply"/><circle cx="135.55" cy="282.68" r="3.11" style="fill:#94cdba;mix-blend-mode:multiply"/><path d="M198.83,330.4a3.11,3.11,0,1,1-3.11-3.11A3.11,3.11,0,0,1,198.83,330.4Z" style="fill:#94cdba;mix-blend-mode:multiply"/><path d="M180.16,344.92a3.12,3.12,0,1,1-3.11-3.11A3.11,3.11,0,0,1,180.16,344.92Z" style="fill:#47cbea;mix-blend-mode:multiply"/><path d="M163.56,353.22a3.11,3.11,0,1,1-3.11-3.11A3.11,3.11,0,0,1,163.56,353.22Z" style="fill:#47cbea;mix-blend-mode:multiply"/><path d="M151.11,343.88a6.23,6.23,0,1,1-6.22-6.22A6.23,6.23,0,0,1,151.11,343.88Z" style="fill:#47cbea;mix-blend-mode:multiply"/><circle cx="152.15" cy="301.35" r="3.11" style="fill:#94cdba;mix-blend-mode:multiply"/><circle cx="189.49" cy="257.78" r="3.11" style="fill:#94cdba;mix-blend-mode:multiply"/><path d="M209.2,247.41a3.11,3.11,0,1,1-3.11-3.11A3.11,3.11,0,0,1,209.2,247.41Z" style="fill:#47cbea;mix-blend-mode:multiply"/></g><rect x="130.36" y="254.67" width="70.54" height="80.91" rx="3.86" style="fill:#f6f6f6"/><rect x="137.49" y="275.42" width="56.61" height="16.98" style="fill:#2f4260"/><text transform="translate(143.61 286.64)" style="font-size:9.367690086364746px;fill:#f6f6f6;font-family:Montserrat-Bold, Montserrat Bold;font-weight:700;letter-spacing:-0.021005962188738677em">C<tspan x="5.24" y="0" style="letter-spacing:0.0000521239756544384em">OVID 19</tspan></text><text transform="translate(138.84 311.7)" style="font-size:13px;fill:#2f4260;font-family:Montserrat-Bold, Montserrat Bold;font-weight:700"><tspan style="letter-spacing:-0.03297776442307692em">V</tspan><tspan x="6.83" y="0" style="letter-spacing:-0.000037560096153846156em">a</tspan><tspan x="13.09" y="0" style="letter-spacing:-0.006009615384615385em">c</tspan><tspan x="18.84" y="0">cine</tspan></text><path d="M216.51,228.11l-13.39-9.74a10.43,10.43,0,0,1-4.29-8.43V196.58H178.08v14.11a8.94,8.94,0,0,0,3.69,7.24l14,10.18a12.47,12.47,0,0,1,5.13,10.09V360.85a10,10,0,0,1-10,10h20.74a10,10,0,0,0,10-10V238.2A12.48,12.48,0,0,0,216.51,228.11Z" style="fill:#ccc;opacity:0.42;mix-blend-mode:multiply"/><path d="M125.13,228.11l17.11-12.44a1.4,1.4,0,0,0,.57-1.13v-18h10.38v18a1.41,1.41,0,0,1-.58,1.13L135.5,228.11a12.48,12.48,0,0,0-5.14,10.09V360.85a10,10,0,0,0,10,10H130a10,10,0,0,1-10-10V238.2A12.48,12.48,0,0,1,125.13,228.11Z" style="fill:#f6f6f6;opacity:0.63;mix-blend-mode:screen"/><rect x="132.44" y="198.65" width="66.39" height="14.52" style="fill:#ccc;opacity:0.42;mix-blend-mode:multiply"/><rect x="119.99" y="176.93" width="93.36" height="24.77" rx="7.41" style="fill:#2f4260"/><path d="M205.94,195.48H127.4a7.41,7.41,0,0,1-7.41-7.41v6.22a7.41,7.41,0,0,0,7.41,7.41h78.54a7.41,7.41,0,0,0,7.41-7.41v-6.22A7.41,7.41,0,0,1,205.94,195.48Z" style="fill:#2f4260;opacity:0.48;mix-blend-mode:multiply"/><path d="M199.72,176.93H176.9a7.41,7.41,0,0,1,7.41,7.41v9.95a7.41,7.41,0,0,1-7.41,7.41h22.82a7.41,7.41,0,0,0,7.41-7.41v-9.95A7.41,7.41,0,0,0,199.72,176.93Z" style="fill:#2f4260;opacity:0.48;mix-blend-mode:multiply"/><path d="M141.63,194.29v-9.95a7.41,7.41,0,0,1,7.41-7.41H136.59a7.41,7.41,0,0,0-7.41,7.41v9.95a7.41,7.41,0,0,0,7.41,7.41H149A7.41,7.41,0,0,1,141.63,194.29Z" style="fill:#2f4260;opacity:0.48;mix-blend-mode:screen"/><rect x="80.77" y="61.18" width="9.76" height="35.35" style="fill:#ea4747"/><rect x="80.77" y="61.18" width="9.76" height="35.35" transform="translate(6.8 164.5) rotate(-90)" style="fill:#ea4747"/><circle cx="86.1" cy="77.95" r="29.46" style="fill:none;stroke:#ea4747;stroke-miterlimit:10;stroke-width:3.3347px;opacity:0.99"/><rect x="223.39" y="115.13" width="4.2" height="15.23" style="fill:#ea4747"/><rect x="223.39" y="115.13" width="4.2" height="15.23" transform="translate(102.74 348.24) rotate(-90)" style="fill:#ea4747"/><circle cx="225.68" cy="122.36" r="12.69" transform="translate(54.5 313.67) rotate(-76.64)" style="fill:none;stroke:#ea4747;stroke-miterlimit:10;stroke-width:1.43649px;opacity:0.99"/><rect x="25.39" y="240.85" width="3.3" height="11.96" style="fill:#ea4747"/><rect x="25.39" y="240.85" width="3.3" height="11.96" transform="translate(-219.8 273.87) rotate(-90)" style="fill:#ea4747"/><circle cx="27.19" cy="246.53" r="9.97" style="fill:none;stroke:#ea4747;stroke-miterlimit:10;stroke-width:1.12867px;opacity:0.99"/><rect x="250.13" y="264.11" width="5.85" height="21.21" style="fill:#ea4747"/><rect x="250.13" y="264.11" width="5.85" height="21.21" transform="translate(-21.66 527.77) rotate(-90)" style="fill:#ea4747"/><circle cx="253.33" cy="274.17" r="17.67" style="fill:none;stroke:#ea4747;stroke-miterlimit:10;stroke-width:2.00082px;opacity:0.99"/><rect x="61.81" y="157.75" width="6.3" height="22.84" style="fill:#ea4747"/><rect x="61.81" y="157.75" width="6.3" height="22.84" transform="translate(-104.2 234.13) rotate(-90)" style="fill:#ea4747"/><circle cx="65.26" cy="168.58" r="19.03" transform="translate(-113.81 193.36) rotate(-76.72)" style="fill:none;stroke:#ea4747;stroke-miterlimit:10;stroke-width:2.1547300000000003px;opacity:0.99"/></g></svg>