<svg version="1.1" xmlns="http://www.w3.org/2000/svg" xmlns:xlink="http://www.w3.org/1999/xlink" viewBox="0 0 171 171"><defs><linearGradient x1="101.22131" y1="52.94588" x2="149.78887" y2="129.67856" gradientUnits="userSpaceOnUse" id="color-1"><stop offset="0" stop-color="#fed300"></stop><stop offset="1" stop-color="#fed300"></stop></linearGradient><linearGradient x1="22.94606" y1="24.46725" x2="88.99125" y2="125.56031" gradientUnits="userSpaceOnUse" id="color-2"><stop offset="0" stop-color="#3079d6"></stop><stop offset="1" stop-color="#007ab7"></stop></linearGradient><linearGradient x1="148.0005" y1="92.07281" x2="120.65475" y2="63.09188" gradientUnits="userSpaceOnUse" id="color-3"><stop offset="0" stop-color="#3079d6"></stop><stop offset="1" stop-color="#007ab7"></stop></linearGradient></defs><g fill="none" fill-rule="nonzero" stroke="none" stroke-width="1" stroke-linecap="butt" stroke-linejoin="miter" stroke-miterlimit="10" stroke-dasharray="" stroke-dashoffset="0" font-family="none" font-weight="none" font-size="none" text-anchor="none" style="mix-blend-mode: normal"><path d="M0,171.99654v-171.99654h171.99654v171.99654z" fill="none"></path><g><path d="M153.1875,128.25h-49.875v-78.375h37.61644c3.06375,0 5.78906,1.96294 6.75806,4.8735l12.6255,37.8765v28.5c0,3.93656 -3.18844,7.125 -7.125,7.125" fill="url(#color-1)"></path><path d="M103.3125,128.25h-85.5c-3.93656,0 -7.125,-3.18844 -7.125,-7.125v-89.0625c0,-3.93656 3.18844,-7.125 7.125,-7.125h78.375c3.93656,0 7.125,3.18844 7.125,7.125z" fill="url(#color-2)"></path><path d="M149.625,128.25c0,9.83606 -7.97287,17.8125 -17.8125,17.8125c-9.83962,0 -17.8125,-7.97644 -17.8125,-17.8125c0,-9.83606 7.97288,-17.8125 17.8125,-17.8125c9.83963,0 17.8125,7.97644 17.8125,17.8125" fill="#586169"></path><path d="M64.125,128.25c0,9.83606 -7.97644,17.8125 -17.8125,17.8125c-9.83606,0 -17.8125,-7.97644 -17.8125,-17.8125c0,-9.83606 7.97644,-17.8125 17.8125,-17.8125c9.83606,0 17.8125,7.97644 17.8125,17.8125" fill="#586169"></path><path d="M138.9375,128.25c0,3.93656 -3.18844,7.125 -7.125,7.125c-3.93656,0 -7.125,-3.18844 -7.125,-7.125c0,-3.93656 3.18844,-7.125 7.125,-7.125c3.93656,0 7.125,3.18844 7.125,7.125" fill="#999999"></path><path d="M53.4375,128.25c0,3.93656 -3.18844,7.125 -7.125,7.125c-3.93656,0 -7.125,-3.18844 -7.125,-7.125c0,-3.93656 3.18844,-7.125 7.125,-7.125c3.93656,0 7.125,3.18844 7.125,7.125" fill="#999999"></path><path d="M146.0625,89.0625h-24.9375c-1.9665,0 -3.5625,-1.596 -3.5625,-3.5625v-24.9375c0,-1.9665 1.596,-3.5625 3.5625,-3.5625h17.8125c1.539,0 2.89631,0.97969 3.38081,2.43675l7.125,21.375c0.11756,0.36338 0.18169,0.74456 0.18169,1.12575v3.5625c0,1.9665 -1.596,3.5625 -3.5625,3.5625z" fill="#47CBEA"></path></g></g></svg>