<svg xmlns="http://www.w3.org/2000/svg" viewBox="0 0 646.82 671.09"><title>questiohhnRecurso 11024px</title><g style="isolation:isolate"><polygon points="646.82 454.76 370.76 268.96 0 485.3 276.07 671.09 646.82 454.76" style="fill:#c4c443"/><polygon points="256.89 593.57 201.89 625.97 59.1 530.5 113.64 497.8 64.08 464.67 332.34 303.82 579.29 471.78 311.04 629.78 256.89 593.57" style="fill:#807e89"/><path d="M332.19,308.9,571.31,471.52,311.19,624.73,257,588.53l-55,32.39L67.08,530.7,121.63,498,72.07,464.87l260.12-156Zm.29-10.15-4.68,2.81-260.13,156L56.1,464.47,67.32,472l38.33,25.63-43,25.77-11.58,6.94,11.22,7.5,135,90.22,4.47,3,4.62-2.73,50.38-29.67,49.69,33.22,4.46,3,4.63-2.72L575.65,478.89,587.27,472l-11.15-7.59L337,301.82l-4.52-3.07Z" style="fill:#eae3e1"/><polygon points="327.63 597.75 413 589.87 620.36 469.3 541.94 420.15 416.94 464.53 362.62 484.87 349.57 505.5 328.02 549.51 327.63 597.75" style="fill:#382c36;opacity:0.4"/><polygon points="327.63 597.18 113.96 455.5 113.96 138.8 327.63 280.48 327.63 597.18" style="fill:#f4f5f7"/><polygon points="327.63 597.35 113.96 455.67 113.96 434.04 327.63 575.72 327.63 597.35" style="fill:#cae2ef"/><polygon points="288.65 571.48 289.51 418.73 310.39 467.16 310.39 497.51 294.25 487.57 294.36 575.33 288.65 571.48" style="fill:#382c36;opacity:0.1"/><polygon points="327.63 291.02 113.96 149.05 113.96 138.8 327.63 280.48 327.63 291.02" style="fill:#bdcad3"/><polygon points="327.63 597.22 542.99 471.73 542.99 155.03 327.63 280.52 327.63 597.22" style="fill:#bdcad3"/><polygon points="281.46 577.03 289.2 571.39 289.2 451.93 281.46 455.86 281.46 577.03" style="fill:#cacac8"/><polygon points="542.99 155.03 329.32 13.36 114.07 138.8 327.74 280.48 542.99 155.03" style="fill:#f99770"/><polygon points="327.63 324.58 113.96 182.9 113.96 161.26 327.63 302.94 327.63 324.58" style="fill:#cae2ef"/><polygon points="327.63 324.62 542.99 199.13 542.99 177.5 327.63 302.99 327.63 324.62" style="fill:#4b7ca4"/><polygon points="327.63 597.39 542.99 471.9 542.99 450.27 327.63 575.76 327.63 597.39" style="fill:#4b7ca4;stroke:#4b7ca4;stroke-miterlimit:10;stroke-width:0.855076px"/><polygon points="548.33 155.03 548.33 144.88 329.59 10.15 108.73 128.65 108.73 138.8 327.48 283.68 548.33 155.03" style="fill:#ebf2fa"/><polygon points="329.59 10.15 327.48 276.3 327.27 286.31 327.48 283.68 548.33 155.03 548.33 144.88 329.59 10.15" style="fill:#cacac8"/><polygon points="548.33 144.88 329.59 0 108.73 128.65 327.48 273.54 548.33 144.88" style="fill:#fff"/><polygon points="530.43 144.89 328.7 10.75 126.63 128.65 328.36 262.79 530.43 144.89" style="fill:#d4d4d4"/><polygon points="328.7 10.75 126.63 128.65 139.93 137.04 328.7 26.75 328.7 10.75" style="fill:#c7c7c7"/><polygon points="328.7 26.75 517.13 152.49 530.43 144.89 328.7 10.75 328.7 26.75" style="fill:#f4f5f7"/><polygon points="149.27 478.7 149.27 325.95 170.16 374.38 170.16 404.74 154.02 394.8 154.12 482.55 149.27 478.7" style="fill:#7466a4;opacity:0.1;mix-blend-mode:multiply"/><polygon points="162.02 485.14 162.02 368.01 265.88 436.4 265.88 553.59 162.02 485.14" style="fill:#435a5e"/><path d="M164.27,372.19l99.35,65.43V549.41l-99.35-65.49V372.19Zm-4.5-8.37V486.35l2,1.34,99.35,65.48,7,4.61V435.19l-2-1.34-99.35-65.43-7-4.6Z" style="fill:#eae3e1"/><polygon points="234.72 527.44 236.64 476.13 190.23 458.82 190.23 498.08 234.72 527.44" style="fill:#435a5e;opacity:0.6000000000000001;mix-blend-mode:multiply"/><polygon points="335.23 258.86 145.59 132.93 126.5 128.54 328.31 262.83 335.23 258.86" style="fill:#382c36;opacity:0.1"/><g style="opacity:0.8;mix-blend-mode:multiply"><path d="M124.58,260.56,313.23,385v22.33L124.58,283.83V260.56Zm-4-7.38v7.38l2.57,27.13L320.62,416.42V335.48l-2.68-6.13L126.77,257.24l-6.16-4.06Z" style="fill:#bdcad3"/></g><polygon points="122.33 281.58 122.33 203.28 315.49 330.73 315.49 408.07 122.33 281.58" style="fill:#435a5e"/><path d="M124.58,207.47,313.23,331.94v72L124.58,280.36V207.47Zm-4.51-8.38V282.8l2,1.34L310.76,407.67l7,4.57V329.51l-2-1.33L127.06,203.71l-7-4.62Z" style="fill:#eae3e1"/><polygon points="134.62 289.79 122.22 281.35 122.22 203.95 134.62 212.39 134.62 289.79" style="fill:#eae3e1"/><polygon points="194.66 329.14 182.25 320.71 182.25 243.31 194.66 251.75 194.66 329.14" style="fill:#eae3e1"/><polygon points="254.69 368.5 242.28 360.07 242.28 282.67 254.69 291.11 254.69 368.5" style="fill:#eae3e1"/><polygon points="314.72 407.87 302.32 399.43 302.32 322.03 314.72 330.47 314.72 407.87" style="fill:#eae3e1"/><polygon points="147.03 280.36 134.62 287 134.62 214.12 147.03 222.37 147.03 280.36" style="fill:#bdcad3"/><polygon points="147.03 280.36 134.62 287 182.25 318.28 182.25 302.85 147.03 280.36" style="fill:#fff"/><polygon points="207.06 319.88 194.66 326.52 194.66 253.65 207.06 261.9 207.06 319.88" style="fill:#bdcad3"/><polygon points="207.06 319.88 194.66 326.52 242.28 357.81 242.28 342.38 207.06 319.88" style="fill:#fff"/><polygon points="267.05 359.49 254.65 366.13 254.65 293.26 267.05 301.51 267.05 359.49" style="fill:#bdcad3"/><polygon points="267.05 359.49 254.65 366.13 302.27 397.42 302.28 381.98 267.05 359.49" style="fill:#fff"/><polygon points="183.18 501.93 178.67 499.05 178.67 440.35 183.18 440.35 183.18 501.93" style="fill:#eae3e1"/><polygon points="246.24 541.05 241.73 538.16 241.73 469.94 246.24 469.94 246.24 541.05" style="fill:#eae3e1"/><polygon points="190.23 498.08 185.72 495.2 185.72 426.97 190.23 426.97 190.23 498.08" style="fill:#eae3e1"/><polygon points="238.76 529.93 234.25 527.05 234.25 458.82 238.76 458.82 238.76 529.93" style="fill:#eae3e1"/><polygon points="165.41 292.08 160.9 289.19 160.9 230.5 165.41 230.5 165.41 292.08" style="fill:#eae3e1"/><polygon points="225.44 332.02 220.93 329.13 220.93 270.43 225.44 270.43 225.44 332.02" style="fill:#eae3e1"/><polygon points="286.21 371.96 281.71 369.07 281.71 310.37 286.21 310.37 286.21 371.96" style="fill:#eae3e1"/><g style="opacity:0.8;mix-blend-mode:multiply"><path d="M530.66,278.14v23.41L342,408.77V386.43L530.66,278.14Zm4-7.08-6.16,3.56L339.82,382.92l-1.78,1v31.82l6.14-3.47,188.66-107.2,1.79-1v-33Z" style="fill:#ada17c;opacity:0.5"/></g><polygon points="339.75 331.92 532.92 220.72 532.92 299.48 339.75 409.27 339.75 331.92" style="fill:#303a3a"/><path d="M530.66,224.75v73.31L342,405.3v-72L530.66,224.75Zm4.51-8.05-7,4.05L339.53,329.35l-2,1.16v82.72l7-3.94L533.13,302.07l2-1.17V216.7Z" style="fill:#d1cac8"/><polygon points="520.62 306.67 533.02 299.26 533.02 221.41 520.62 228.84 520.62 306.67" style="fill:#d1cac8"/><polygon points="460.58 340.96 472.99 333.58 472.99 255.87 460.58 263.28 460.58 340.96" style="fill:#d1cac8"/><polygon points="400.55 375.12 412.96 367.77 412.96 290.2 400.55 297.58 400.55 375.12" style="fill:#d1cac8"/><polygon points="340.52 409.13 352.92 401.82 352.92 324.38 340.52 331.73 340.52 409.13" style="fill:#d1cac8"/><polygon points="508.21 296.11 520.62 303.86 520.62 230.59 508.21 237.66 508.21 296.11" style="fill:#a4b1ba"/><polygon points="508.21 296.11 520.62 303.86 472.99 331.15 472.99 315.65 508.21 296.11" style="fill:#e6e6e6"/><polygon points="448.18 330.58 460.58 338.33 460.58 265.08 448.09 272.31 448.18 330.58" style="fill:#a4b1ba"/><polygon points="448.18 330.58 460.58 338.33 412.96 365.5 412.95 350.04 448.18 330.58" style="fill:#e6e6e6"/><polygon points="388.19 364.99 400.59 372.74 400.59 299.63 388.19 306.82 388.19 364.99" style="fill:#a4b1ba"/><polygon points="388.19 364.99 400.59 372.74 352.97 399.8 352.96 384.36 388.19 364.99" style="fill:#e6e6e6"/><polygon points="489.84 306.3 494.34 303.8 494.34 244.82 489.84 244.44 489.84 306.3" style="fill:#d1cac8"/><polygon points="429.8 341.14 434.31 338.64 434.31 279.77 429.8 279.38 429.8 341.14" style="fill:#d1cac8"/><polygon points="369.03 375.76 373.54 373.28 373.54 314.52 369.03 314.13 369.03 375.76" style="fill:#d1cac8"/><polygon points="281.46 577.03 277.47 574.51 277.47 459.89 281.46 457.61 281.46 577.03" style="fill:#f4f5f7"/><g style="opacity:0.1;mix-blend-mode:multiply"><path d="M281.46,484.16v-28.3l2.59-1.32-.59-2.63-7.13.85s-10.83,4-12.26,4.28-14.82,6.56-14.82,6.56l26.51,12.54v5.41Z" style="fill:#7466a4"/></g><g style="opacity:0.8;mix-blend-mode:multiply"><path d="M530.66,394.23v23.42L342,524.86V502.52L530.66,394.23Zm4-7.07-6.16,3.55L339.82,499,338,500v31.82l6.14-3.47L532.84,421.17l1.79-1v-33Z" style="fill:#ada17c;opacity:0.5"/></g><polygon points="339.75 448.02 532.92 336.82 532.92 415.58 339.75 525.36 339.75 448.02" style="fill:#303a3a"/><path d="M530.66,340.84v73.32L342,521.4v-72L530.66,340.84Zm4.51-8-7,4.05L339.53,445.45l-2,1.16v82.72l7-3.94L533.13,418.17l2-1.17V332.8Z" style="fill:#d1cac8"/><polygon points="520.62 422.76 533.02 415.35 533.02 337.5 520.62 344.94 520.62 422.76" style="fill:#d1cac8"/><polygon points="460.58 457.06 472.99 449.68 472.99 371.97 460.58 379.38 460.58 457.06" style="fill:#d1cac8"/><polygon points="400.55 491.21 412.96 483.87 412.96 406.29 400.55 413.67 400.55 491.21" style="fill:#d1cac8"/><polygon points="340.52 525.23 352.92 517.91 352.92 440.48 340.52 447.82 340.52 525.23" style="fill:#d1cac8"/><polygon points="508.21 412.21 520.62 419.96 520.62 346.69 508.21 353.93 508.21 412.21" style="fill:#a4b1ba"/><polygon points="508.21 412.21 520.62 419.96 472.99 447.24 472.99 431.75 508.21 412.21" style="fill:#e6e6e6"/><polygon points="448.18 446.68 460.58 454.43 460.58 381.29 448.18 388.5 448.18 446.68" style="fill:#a4b1ba"/><polygon points="448.18 446.68 460.58 454.43 412.96 481.6 412.95 466.13 448.18 446.68" style="fill:#e6e6e6"/><polygon points="388.19 481.09 400.59 488.84 400.59 415.83 388.19 423.01 388.19 481.09" style="fill:#a4b1ba"/><polygon points="388.19 481.09 400.59 488.84 352.97 515.9 352.96 500.46 388.19 481.09" style="fill:#e6e6e6"/><polygon points="489.84 422.4 494.34 419.89 494.34 360.92 489.84 360.53 489.84 422.4" style="fill:#d1cac8"/><polygon points="429.8 457.23 434.31 454.74 434.31 395.87 429.8 395.48 429.8 457.23" style="fill:#d1cac8"/><polygon points="369.03 491.86 373.54 489.38 373.54 430.61 369.03 430.22 369.03 491.86" style="fill:#d1cac8"/><polygon points="142.08 483.4 149.82 479.47 149.82 360 142.08 363.94 142.08 483.4" style="fill:#cacac8"/><polygon points="142.08 483.4 138.09 480.88 138.09 367.97 142.08 365.69 142.08 483.4" style="fill:#f4f5f7"/><polygon points="289.51 453.12 289.51 426 87.71 392.68 229.44 487.2 289.51 453.12" style="fill:#cacac8"/><polygon points="229.55 448.05 87.71 365.56 87.71 392.68 229.44 487.2 229.55 448.05" style="fill:#f4f5f7"/><polygon points="289.51 426 146.08 330.62 86.01 364.7 229.44 460.08 289.51 426" style="fill:#dcdee2"/><polygon points="291.22 424.95 291.22 419.08 146.87 333.94 85.93 359.24 85.93 365.11 230.28 460.39 291.22 424.95" style="fill:#ebf2fa"/><polygon points="146.87 334.8 230.28 455.38 230.06 461.11 230.28 461.25 291.22 425.81 291.22 419.94 146.87 334.8" style="fill:#cacac8"/><polygon points="291.22 419.08 146.87 323.8 85.93 359.24 230.28 454.52 291.22 419.08" style="fill:#fff"/><polygon points="273.31 419.09 145.98 334.55 103.83 359.24 231.16 443.78 273.31 419.09" style="fill:#d4d4d4"/><polygon points="145.98 334.55 103.83 359.24 109.66 363.26 145.98 341.99 145.98 334.55" style="fill:#c7c7c7"/><polygon points="145.98 341.99 266.57 422.91 273.31 419.09 145.98 334.55 145.98 341.99" style="fill:#f4f5f7"/><path d="M111.79,396.79l-.74,3.5-2.35-1.58,3.16-13.45,3,2,3,17.59-2.44-1.64-.75-4.5Zm2.56-.89-.6-3.72c-.17-1-.34-2.31-.49-3.33l0,0c-.15.82-.31,1.89-.48,2.67l-.62,2.89Z" style="fill:#00a200"/><path d="M128.63,406.23c0-1.88,0-4.14,0-6.38l0,0c-.34,1.75-.78,3.66-1.19,5.2l-1.28,5.18-1.78-1.2-1-6.69c-.31-2-.63-4.46-.85-6.64l0,0c-.08,2.05-.15,4.4-.24,6.27l-.23,5.74-2.1-1.42.78-15,3,2.07.93,5.81c.3,2,.59,4.13.8,6.08l0,0c.3-1.59.67-3.39,1-4.88l1.13-4.38,3,2,.37,15.73-2.22-1.49Z" style="fill:#00a200"/><path d="M133.76,400.37a17.79,17.79,0,0,1,3,1.68,9.52,9.52,0,0,1,3,2.89,6.94,6.94,0,0,1,1.16,3.81c0,1.36-.56,2.27-1.7,2.14v0a7.67,7.67,0,0,1,1.94,5.12c0,1.38-.45,2.19-1.09,2.53s-2,.07-4-1.27a22,22,0,0,1-2.45-1.89Zm2.08,14.18a9.83,9.83,0,0,0,.88.64c1,.7,1.95.72,2-.89a4.26,4.26,0,0,0-2-3.54l-.78-.52Zm.1-6.79.74.51c1.19.81,1.85.5,1.86-.64a3.34,3.34,0,0,0-1.59-2.86,5.13,5.13,0,0,0-1-.57Z" style="fill:#00a200"/><path d="M146,408.46l-.14,8.76c0,2.62.59,4.4,1.75,5.18s1.87,0,1.92-2.69l.15-8.75,2.27,1.55-.15,8.5c-.09,4.69-1.69,5.86-4.31,4.1s-4-4.84-3.9-9.7l.13-8.5Z" style="fill:#00a200"/><path d="M154.77,414.46l2.29,1.56-.24,12.25,4,2.69-.06,2.87-6.26-4.22Z" style="fill:#00a200"/><path d="M165.49,433.11l-.8,3.38-2.35-1.59,3.4-13,3,2,2.76,17.12-2.44-1.64-.68-4.38Zm2.61-.82-.56-3.61c-.16-1-.31-2.26-.44-3.25l0,0c-.17.79-.34,1.83-.53,2.59l-.66,2.79Z" style="fill:#00a200"/><path d="M173.72,442.58l.37-15,2.66,1.81,1.95,6.9c.56,2,1.1,4.24,1.5,6.22l.05,0c-.1-2.07-.09-4.11,0-6.35l.12-4.36,2.09,1.42-.41,14.9-2.38-1.6-2-7.21c-.56-2-1.16-4.37-1.61-6.46h0c0,2,0,4.15-.08,6.59l-.11,4.5Z" style="fill:#00a200"/><path d="M192.25,454.65a5.37,5.37,0,0,1-2.59-1.1c-3.46-2.33-5.16-6.74-5-11,.14-5.08,2.67-6.24,5.72-4.16a10,10,0,0,1,2.46,2.34l-.55,2.34a8.31,8.31,0,0,0-1.89-1.84c-1.8-1.23-3.25-.57-3.35,2.74a8.07,8.07,0,0,0,3.08,7,4.68,4.68,0,0,0,1.9.79Z" style="fill:#00a200"/><path d="M200.79,454.46,197.1,452l-.11,3.51,4.12,2.78L201,461l-6.4-4.31.46-14.79,6.22,4.22-.09,2.74-3.93-2.67-.1,3.07,3.7,2.5Z" style="fill:#00a200"/><polygon points="204.22 376.63 204.22 381.07 226.45 395.99 226.45 391.39 204.22 376.63" style="fill:#435a5e;opacity:0.2"/><g style="opacity:0.5"><polygon points="172.32 296.44 167.06 293.15 175.61 241.2 181.38 244.94 172.32 296.44" style="fill:#bdcad3"/></g><g style="opacity:0.5"><polygon points="237.26 339.13 226.91 332.48 235.46 280.54 242.34 285.15 242.29 308.44 237.26 339.13" style="fill:#bdcad3"/></g><g style="opacity:0.5"><polygon points="297.33 378.85 291.75 375.25 300.27 323.57 302.48 324.77 302.43 348.06 297.33 378.85" style="fill:#bdcad3"/></g><g style="opacity:0.4;mix-blend-mode:multiply"><polygon points="238.35 439.58 198.17 413.68 203.53 410.62 209.92 414.57 228.02 405.73 217.92 399.21 225.74 395.76 204.36 380.94 189.63 387.52 172.26 373.63 153.98 382.33 168.59 391.34 168.82 394.76 115.01 360.06 103.69 359.13 168.82 402.42 168.82 407.42 175.65 413.07 185.34 413.18 231.11 443.82 238.35 439.58" style="fill:#c6ba95"/></g><polygon points="205.53 371.25 186.27 358.53 186.27 335.27 166.34 321.46 156.38 327.82 167.06 346.13 148.47 333.45 138.39 339.63 147.11 363.25 164.62 374.81 176.19 413.59 186.27 407.41 186.27 385.27 195.44 403.23 205.53 397.05 205.53 371.25" style="fill:#008035"/><path d="M157.54,399.11V377.36a1.3,1.3,0,0,0-.57-1.07l-17.3-11.54V342l15.87,10.59a1.27,1.27,0,0,0,.72.22,1.28,1.28,0,0,0,1.28-1.28V330.09l17.36,12v22.59a1.29,1.29,0,0,0,.58,1.07l18.68,12.34v22.73l-17.27-11.41a1.28,1.28,0,0,0-.71-.21,1.28,1.28,0,0,0-1.28,1.28v20.63Z" style="fill:#00b535"/><path d="M158.82,332.54l14.8,10.25v21.92a2.56,2.56,0,0,0,1.15,2.14l18.11,12v19.65L177.6,388.37a2.59,2.59,0,0,0-1.42-.42,2.51,2.51,0,0,0-1.21.31,2.55,2.55,0,0,0-1.35,2.25v18.18l-14.8-10.25V377.36a2.58,2.58,0,0,0-1.14-2.14L141,364.06V344.43l13.88,9.26a2.55,2.55,0,0,0,1.43.43,2.61,2.61,0,0,0,1.21-.3,2.58,2.58,0,0,0,1.35-2.26v-19Zm-2.56-4.9v23.92l-17.87-11.93v25.81l17.87,11.92v22.42l19.92,13.81V390.51l19.27,12.72v-25.8l-19.27-12.72V341.45l-19.92-13.81Z" style="fill:#fff"/><polygon points="195.44 377.43 201.93 373.95 182.67 361.23 176.19 364.71 195.44 377.43" style="fill:#00b535"/><polygon points="176.32 341.39 186.27 335.27 166.34 321.46 156.38 327.82 176.32 341.39" style="fill:#00b535"/><polygon points="156.33 352.07 156.28 338.74 148.47 333.45 138.32 339.66 156.33 352.07" style="fill:#00b535"/><polygon points="337.48 330.6 535.17 216.7 531.71 214.34 337.32 326.31 337.48 330.6" style="fill:#fff;opacity:0.4"/><polygon points="337.37 446.68 535.07 332.78 531.61 330.42 337.22 442.39 337.37 446.68" style="fill:#fff;opacity:0.4"/><path d="M119.35,540.09h-.26L96.21,538.8a4.51,4.51,0,1,1,.5-9l22.89,1.28a4.51,4.51,0,0,1-.25,9Z" style="fill:#382c36;opacity:0.30000000000000004"/><path d="M219.61,607.15h-.26l-22.89-1.29a4.51,4.51,0,0,1,.51-9l22.89,1.29a4.51,4.51,0,0,1-.25,9Z" style="fill:#382c36;opacity:0.30000000000000004"/><path d="M99.4,487a4.74,4.74,0,1,0-6.09,0,6.42,6.42,0,0,0-3.41,5.65v40.62c0,3.56,2.89,5.37,6.45,5.37s6.45-1.81,6.45-5.37V492.6A6.43,6.43,0,0,0,99.4,487Z" style="fill:#4c4949"/><path d="M200.26,554.29a4.73,4.73,0,1,0-6.08,0,6.42,6.42,0,0,0-3.41,5.65v40.62c0,3.56,2.89,5.37,6.45,5.37s6.45-1.81,6.45-5.37V559.94A6.42,6.42,0,0,0,200.26,554.29Z" style="fill:#4c4949"/><path d="M351.06,143.42l28.62,18.89-24.36,14.41-28.77-19-34,19.83L268.1,161.48l34-19.87L273.88,123l24.36-14.4,28.42,18.76,34-19.86,24.48,16.06ZM327,85.2c-50.74,0-91.87,25.81-91.87,57.64s41.13,57.65,91.87,57.65,91.88-25.81,91.88-57.65S377.7,85.2,327,85.2Z" style="fill:#00b535"/><polygon points="351.06 143.42 379.68 162.31 355.32 176.72 326.55 157.72 292.58 177.55 268.1 161.48 302.15 141.61 273.88 122.95 298.24 108.55 326.66 127.31 360.7 107.45 385.18 123.51 351.06 143.42" style="fill:#fff;opacity:0.9500000000000001"/></g></svg>