<svg version="1.1" xmlns="http://www.w3.org/2000/svg" xmlns:xlink="http://www.w3.org/1999/xlink" viewBox="0 0 171 171"><g fill="none" fill-rule="nonzero" stroke="none" stroke-width="1" stroke-linecap="butt" stroke-linejoin="miter" stroke-miterlimit="10" stroke-dasharray="" stroke-dashoffset="0" font-family="none" font-weight="none" font-size="none" text-anchor="none" style="mix-blend-mode: normal"><path d="M0,171.99654v-171.99654h171.99654v171.99654z" fill="none"></path><g><path d="M57,117.5625h-7.125v-21.375h14.25v14.25c0,3.93656 -3.18844,7.125 -7.125,7.125z" fill="#d9414f"></path><path d="M57,99.75h-21.375v42.75c0,5.90306 4.78444,10.6875 10.6875,10.6875h7.125c1.9665,0 3.5625,-1.596 3.5625,-3.5625z" fill="#0078d4"></path><path d="M149.625,64.125c5.90306,0 10.6875,4.78444 10.6875,10.6875c0,5.90306 -4.78444,10.6875 -10.6875,10.6875z" fill="#0078d4"></path><path d="M138.9375,10.6875c0,0 -14.25,39.1875 -81.9375,39.1875v49.875c67.6875,0 81.9375,39.1875 81.9375,39.1875z" fill="#35c1f1"></path><path d="M142.5,10.6875h-3.5625v128.25h3.5625c3.93656,0 7.125,-3.18844 7.125,-7.125v-114c0,-3.93656 -3.18844,-7.125 -7.125,-7.125z" fill="#50e6ff"></path><path d="M35.625,49.875c-13.77262,0 -24.9375,11.16488 -24.9375,24.9375c0,13.77263 11.16488,24.9375 24.9375,24.9375h21.375v-49.875z" fill="#1b9de2"></path></g></g></svg>