<svg version="1.1" xmlns="http://www.w3.org/2000/svg" xmlns:xlink="http://www.w3.org/1999/xlink" viewBox="0 0 171 171"><defs><linearGradient x1="70.18481" y1="77.86556" x2="86.0415" y2="149.22244" gradientUnits="userSpaceOnUse" id="color-1"><stop offset="0" stop-color="#75daff"></stop><stop offset="1" stop-color="#1ea2e4"></stop></linearGradient><linearGradient x1="117.26681" y1="71.25" x2="122.01919" y2="71.25" gradientUnits="userSpaceOnUse" id="color-2"><stop offset="0" stop-color="#c48f0c"></stop><stop offset="0.251" stop-color="#d19b16"></stop><stop offset="0.619" stop-color="#dca51f"></stop><stop offset="1" stop-color="#e0a922"></stop></linearGradient><linearGradient x1="53.73319" y1="71.25" x2="48.98081" y2="71.25" gradientUnits="userSpaceOnUse" id="color-3"><stop offset="0" stop-color="#c48f0c"></stop><stop offset="0.251" stop-color="#d19b16"></stop><stop offset="0.619" stop-color="#dca51f"></stop><stop offset="1" stop-color="#e0a922"></stop></linearGradient><radialGradient cx="85.49783" cy="66.61547" r="38.39192" gradientUnits="userSpaceOnUse" id="color-4"><stop offset="0" stop-color="#ffcf54"></stop><stop offset="0.261" stop-color="#fdcb4d"></stop><stop offset="0.639" stop-color="#f7c13a"></stop><stop offset="1" stop-color="#f0b421"></stop></radialGradient><radialGradient cx="55.02676" cy="52.07717" r="79.36235" gradientUnits="userSpaceOnUse" id="color-5"><stop offset="0" stop-color="#c26715"></stop><stop offset="0.508" stop-color="#b85515"></stop><stop offset="1" stop-color="#ad3f16"></stop></radialGradient><linearGradient x1="77.90831" y1="15.4755" x2="109.56825" y2="154.33819" gradientUnits="userSpaceOnUse" id="color-6"><stop offset="0" stop-color="#75daff"></stop><stop offset="1" stop-color="#1ea2e4"></stop></linearGradient></defs><g fill="none" fill-rule="nonzero" stroke="none" stroke-width="1" stroke-linecap="butt" stroke-linejoin="miter" stroke-miterlimit="10" stroke-dasharray="" stroke-dashoffset="0" font-family="none" font-weight="none" font-size="none" text-anchor="none" style="mix-blend-mode: normal"><path d="M0,171.99654v-171.99654h171.99654v171.99654z" fill="none"></path><g><path d="M85.5,108.90919c-31.48181,0 -57,17.53106 -57,36.64388v4.07194c0,3.93656 3.18844,7.125 7.125,7.125h99.75c3.93656,0 7.125,-3.18844 7.125,-7.125v-4.07194c0,-19.11281 -25.51819,-36.64388 -57,-36.64388z" fill="url(#color-1)"></path><path d="M85.5,148.56338c0,0 21.375,-16.03838 21.375,-33.13838c0,-1.07944 0,-2.34056 0,-3.6765c-6.60487,-1.80262 -13.80825,-2.83575 -21.375,-2.83575c-7.56675,0 -14.77013,1.03312 -21.375,2.83575c0,1.33594 0,2.59706 0,3.6765c0,17.1 21.375,33.13838 21.375,33.13838z" fill="#75daff"></path><path d="M103.3125,114c0,14.25 -17.8125,28.5 -17.8125,28.5c0,0 -17.8125,-14.25 -17.8125,-28.5c0,-9.39431 0,-32.18719 0,-32.18719h35.625c0,0 0,22.79288 0,32.18719z" fill="#d6a121"></path><path d="M117.26325,64.125h-1.87744v14.25h2.50444c1.83469,0 3.39863,-1.1115 3.70856,-2.63625l1.2255,-6.06694c0.58781,-2.89988 -2.06625,-5.54681 -5.56106,-5.54681z" fill="url(#color-2)"></path><path d="M53.73675,64.125h1.87744v14.25h-2.50444c-1.83469,0 -3.39863,-1.1115 -3.70856,-2.63625l-1.2255,-6.06694c-0.58781,-2.89988 2.06625,-5.54681 5.56106,-5.54681z" fill="url(#color-3)"></path><path d="M85.5,22.8c-15.82106,0 -32.0625,2.40469 -32.0625,36.60469c0,2.736 0,20.93681 0,23.86162c0,12.20869 19.2375,27.17119 32.0625,27.17119c12.825,0 32.0625,-14.9625 32.0625,-27.17119c0,-2.92481 0,-21.12206 0,-23.86162c0,-34.2 -16.24144,-36.60469 -32.0625,-36.60469z" fill="url(#color-4)"></path><path d="M49.875,57c0,5.89238 0.94406,6.68325 3.5625,21.375l7.125,-28.5h49.875c0,0 7.125,24.8235 7.125,28.5c2.14106,-10.72312 3.5625,-16.22719 3.5625,-21.375z" fill="url(#color-5)"></path><path d="M121.125,57c0,0 -17.8125,0 -35.625,0c-17.8125,0 -35.625,0 -35.625,0c0,-14.25 3.5625,-32.0625 3.5625,-32.0625c0,0 7.57388,-7.125 32.0625,-7.125c24.49219,0 32.0625,7.125 32.0625,7.125c0,0 3.5625,17.8125 3.5625,32.0625z" fill="url(#color-6)"></path><g fill="#e52030"><path d="M81.9375,28.5h7.125v21.375h-7.125z"></path><path d="M74.8125,35.625h21.375v7.125h-21.375z"></path></g></g></g></svg>