<svg version="1.1" xmlns="http://www.w3.org/2000/svg" xmlns:xlink="http://www.w3.org/1999/xlink" viewBox="0 0 171 171"><defs><linearGradient x1="73.97887" y1="106.9035" x2="89.24063" y2="159.40763" gradientUnits="userSpaceOnUse" id="color-1"><stop offset="0" stop-color="#47cbea"></stop><stop offset="1" stop-color="#47cbea"></stop></linearGradient><linearGradient x1="117.26681" y1="71.25" x2="122.01919" y2="71.25" gradientUnits="userSpaceOnUse" id="color-2"><stop offset="0" stop-color="#c48f0c"></stop><stop offset="0.251" stop-color="#d19b16"></stop><stop offset="0.619" stop-color="#dca51f"></stop><stop offset="1" stop-color="#e0a922"></stop></linearGradient><linearGradient x1="53.73319" y1="71.25" x2="48.98081" y2="71.25" gradientUnits="userSpaceOnUse" id="color-3"><stop offset="0" stop-color="#c48f0c"></stop><stop offset="0.251" stop-color="#d19b16"></stop><stop offset="0.619" stop-color="#dca51f"></stop><stop offset="1" stop-color="#e0a922"></stop></linearGradient><radialGradient cx="85.4943" cy="66.61858" r="38.39192" gradientUnits="userSpaceOnUse" id="color-4"><stop offset="0" stop-color="#ffcf54"></stop><stop offset="0.261" stop-color="#fdcb4d"></stop><stop offset="0.639" stop-color="#f7c13a"></stop><stop offset="1" stop-color="#f0b421"></stop></radialGradient><radialGradient cx="55.02009" cy="23.7386" r="90.81334" gradientUnits="userSpaceOnUse" id="color-5"><stop offset="0" stop-color="#c26715"></stop><stop offset="0.508" stop-color="#b85515"></stop><stop offset="1" stop-color="#ad3f16"></stop></radialGradient><radialGradient cx="80.38811" cy="29.819" r="100.31235" gradientUnits="userSpaceOnUse" id="color-6"><stop offset="0" stop-color="#c26715"></stop><stop offset="0.508" stop-color="#b85515"></stop><stop offset="1" stop-color="#ad3f16"></stop></radialGradient><linearGradient x1="157.149" y1="100.8615" x2="157.149" y2="120.41606" gradientUnits="userSpaceOnUse" id="color-7"><stop offset="0" stop-color="#dedede"></stop><stop offset="1" stop-color="#d6d6d6"></stop></linearGradient></defs><g fill="none" fill-rule="nonzero" stroke="none" stroke-width="1" stroke-linecap="butt" stroke-linejoin="miter" stroke-miterlimit="10" stroke-dasharray="" stroke-dashoffset="0" font-family="none" font-weight="none" font-size="none" text-anchor="none" style="mix-blend-mode: normal"><path d="M0,171.99654v-171.99654h171.99654v171.99654z" fill="none"></path><g><path d="M85.5,108.90919c-31.48181,0 -57,17.53106 -57,36.64388v4.07194c0,3.93656 3.18844,7.125 7.125,7.125h99.75c3.93656,0 7.125,-3.18844 7.125,-7.125v-4.07194c0,-19.11281 -25.51819,-36.64388 -57,-36.64388z" fill="url(#color-1)"></path><path d="M103.3125,110.4375c0,6.75806 -7.125,14.25 -17.8125,14.25c-10.6875,0 -17.8125,-7.49194 -17.8125,-14.25c0,-9.39431 0,-25.06219 0,-25.06219h35.625c0,0 0,15.66788 0,25.06219z" fill="#d6a121"></path><path d="M117.26325,64.125h-1.87744v14.25h2.50444c1.83469,0 3.39863,-1.1115 3.70856,-2.63625l1.2255,-6.06694c0.58781,-2.89988 -2.06625,-5.54681 -5.56106,-5.54681z" fill="url(#color-2)"></path><path d="M53.73675,64.125h1.87744v14.25h-2.50444c-1.83469,0 -3.39863,-1.1115 -3.70856,-2.63625l-1.2255,-6.06694c-0.58781,-2.89988 2.06625,-5.54681 5.56106,-5.54681z" fill="url(#color-3)"></path><path d="M85.5,22.8c-15.82106,0 -32.0625,2.40469 -32.0625,36.60469c0,2.736 0,20.93681 0,23.86162c0,12.20869 19.2375,27.17119 32.0625,27.17119c12.825,0 32.0625,-14.9625 32.0625,-27.17119c0,-2.92481 0,-21.12206 0,-23.86162c0,-34.2 -16.24144,-36.60469 -32.0625,-36.60469z" fill="url(#color-4)"></path><path d="M85.5,19.75406c-15.51112,0 -17.8125,5.82825 -17.8125,5.82825c-6.30562,0.92981 -17.8125,10.16738 -17.8125,20.72662c0,5.89237 0.94406,10.24575 3.5625,24.9375c1.94156,-23.31656 8.01206,-32.0625 14.25,-32.0625c4.51369,0 8.09756,3.5625 17.8125,3.5625c8.20444,0 10.24219,-3.5625 17.8125,-3.5625c10.6875,0 14.25,28.386 14.25,32.0625c2.14106,-10.72313 3.5625,-19.78969 3.5625,-24.9375c0,-12.21581 -13.50544,-26.55487 -35.625,-26.55487z" fill="url(#color-5)"></path><path d="M86.28019,17.8125c-14.83425,0 -18.582,7.77338 -18.582,7.77338c-0.14963,4.12894 1.85962,7.77338 1.85962,7.77338c0,0 2.7075,5.82825 18.16875,5.82825c9.33375,0 22.71094,-5.82469 22.71094,-21.375c0,0 -3.00319,0 -24.15731,0z" fill="url(#color-6)"></path><path d="M98.76675,156.75h27.32794l15.84244,-15.846c-1.46775,-6.79012 -6.03131,-13.19906 -12.84637,-18.47512l-28.9845,28.98806z" fill="#000000" opacity="0.05"></path><path d="M130.45519,123.58669l-28.22925,28.23281l-0.7125,1.30744v0h-0.00356l-0.90844,3.62306h22.97456l17.76619,-17.76975c-1.61025,-5.60381 -5.41856,-10.89413 -10.887,-15.39356z" fill="#000000" opacity="0.07"></path><path d="M170.21981,103.81481l-6.84712,-6.84356c-1.04025,-1.04381 -2.736,-1.04381 -3.77981,0l-3.2205,3.22406l10.61981,10.61981l3.22406,-3.2205c1.04381,-1.04738 1.04381,-2.736 0.00356,-3.77981" fill="#c94f60"></path><path d="M103.32319,153.2445l-3.57319,14.193l14.19656,-3.57319l1.48913,-12.312z" fill="#f0f0f0"></path><path d="M157.93631,119.871l-43.98975,43.98975l-10.61981,-10.61981l43.98975,-43.98975z" fill="#edbe00"></path><path d="M147.30581,109.25119l9.05944,-9.063l10.62694,10.61981l-9.05944,9.063z" fill="url(#color-7)"></path><path d="M101.55975,160.25906l-1.80975,7.17844l7.17488,-1.80975z" fill="#787878"></path></g></g></svg>