<svg version="1.1" xmlns="http://www.w3.org/2000/svg" xmlns:xlink="http://www.w3.org/1999/xlink" viewBox="0 0 171 171"><defs><linearGradient x1="85.5" y1="124.64119" x2="85.5" y2="146.10525" gradientUnits="userSpaceOnUse" id="color-1"><stop offset="0" stop-color="#a1aab3"></stop><stop offset="1" stop-color="#8f979e"></stop></linearGradient><linearGradient x1="29.79675" y1="26.03475" x2="136.78575" y2="116.30494" gradientUnits="userSpaceOnUse" id="color-2"><stop offset="0" stop-color="#a1aab3"></stop><stop offset="1" stop-color="#8f979e"></stop></linearGradient><radialGradient cx="172.57191" cy="202.54443" r="279.83089" gradientUnits="userSpaceOnUse" id="color-3"><stop offset="0.323" stop-color="#23d9d6"></stop><stop offset="0.427" stop-color="#23d4d7"></stop><stop offset="0.542" stop-color="#21c7dc"></stop><stop offset="0.664" stop-color="#1fb0e2"></stop><stop offset="0.789" stop-color="#47cbea"></stop><stop offset="0.917" stop-color="#47cbea"></stop><stop offset="0.944" stop-color="#1860fb"></stop></radialGradient><linearGradient x1="85.5" y1="121.08581" x2="85.5" y2="138.97312" gradientUnits="userSpaceOnUse" id="color-4"><stop offset="0" stop-color="#484b4f"></stop><stop offset="0.028" stop-color="#565b61"></stop><stop offset="0.066" stop-color="#626a72"></stop><stop offset="0.114" stop-color="#6b757d"></stop><stop offset="0.181" stop-color="#717b84"></stop><stop offset="0.367" stop-color="#727d86"></stop></linearGradient><linearGradient x1="31.12913" y1="24.81638" x2="116.05913" y2="100.13119" gradientUnits="userSpaceOnUse" id="color-5"><stop offset="0" stop-color="#889097"></stop><stop offset="0.331" stop-color="#848c94"></stop><stop offset="0.669" stop-color="#78828b"></stop><stop offset="1" stop-color="#64717c"></stop></linearGradient><linearGradient x1="97.90819" y1="85.43944" x2="72.92438" y2="60.45919" gradientUnits="userSpaceOnUse" id="color-6"><stop offset="0" stop-color="#ffffff"></stop><stop offset="0.242" stop-color="#f2f2f2"></stop><stop offset="1" stop-color="#cccccc"></stop></linearGradient><linearGradient x1="75.50006" y1="63.03131" x2="93.04181" y2="80.57662" gradientUnits="userSpaceOnUse" id="color-7"><stop offset="0" stop-color="#0d61a9"></stop><stop offset="0.363" stop-color="#0e5fa4"></stop><stop offset="0.78" stop-color="#135796"></stop><stop offset="1" stop-color="#16528c"></stop></linearGradient></defs><g fill="none" fill-rule="nonzero" stroke="none" stroke-width="1" stroke-linecap="butt" stroke-linejoin="miter" stroke-miterlimit="10" stroke-dasharray="" stroke-dashoffset="0" font-family="none" font-weight="none" font-size="none" text-anchor="none" style="mix-blend-mode: normal"><path d="M0,171.99654v-171.99654h171.99654v171.99654z" fill="none"></path><g><path d="M49.875,135.375v-10.6875h71.25v10.6875l46.3125,1.19344v5.93156c0,1.9665 -1.596,3.5625 -3.5625,3.5625h-156.75c-1.9665,0 -3.5625,-1.596 -3.5625,-3.5625v-5.05519z" fill="url(#color-1)"></path><path d="M149.625,121.125h-128.25c-3.93656,0 -7.125,-3.18844 -7.125,-7.125v-81.9375c0,-3.93656 3.18844,-7.125 7.125,-7.125h128.25c3.93656,0 7.125,3.18844 7.125,7.125v81.9375c0,3.93656 -3.18844,7.125 -7.125,7.125z" fill="url(#color-2)"></path><rect x="6" y="9" transform="scale(3.5625,3.5625)" width="36" height="23" fill="url(#color-3)"></rect><path d="M167.11331,136.56844l-10.21369,-12.768c-1.35019,-1.69219 -3.39863,-2.67544 -5.56106,-2.67544h-131.67712c-2.166,0 -4.21088,0.98325 -5.56463,2.67544l-10.21369,12.768c-0.76237,0.95475 -0.08194,2.36906 1.14,2.36906h53.31637c1.36088,0 2.60063,-0.77306 3.19912,-1.995l1.53544,-3.135c0.5985,-1.22194 1.83825,-1.995 3.19912,-1.995h38.45006c1.36088,0 2.60062,0.77306 3.19912,1.995l1.53544,3.135c0.5985,1.22194 1.83825,1.995 3.19913,1.995h53.31994c1.22194,0 1.90238,-1.41431 1.13644,-2.36906z" fill="url(#color-4)"></path><path d="M116.64694,65.55356c-3.82613,0.4845 -7.74487,-1.30387 -9.79331,-4.85569c-2.04844,-3.54469 -1.64231,-7.8375 0.69112,-10.90481c-3.6195,-3.43781 -8.03344,-6.042 -12.94612,-7.4955c-1.48913,3.5625 -5.00175,6.0705 -9.10219,6.0705c-4.10044,0 -7.61306,-2.50444 -9.10219,-6.0705c-4.91625,1.4535 -9.32662,4.05769 -12.94613,7.4955c2.32988,3.06731 2.73956,7.36012 0.69112,10.90481c-2.04844,3.54469 -5.96719,5.34019 -9.79331,4.85569c-0.57356,2.40469 -0.90844,4.89844 -0.90844,7.47769c0,2.58281 0.33487,5.07656 0.91556,7.47769c3.82612,-0.4845 7.74488,1.30387 9.79331,4.85569c2.04844,3.54469 1.64231,7.8375 -0.69112,10.90481c3.6195,3.43781 8.03344,6.042 12.94612,7.4955c1.48913,-3.5625 5.00175,-6.0705 9.10219,-6.0705c4.10044,0 7.61306,2.50444 9.10219,6.0705c4.91625,-1.4535 9.32662,-4.05769 12.94613,-7.4955c-2.32988,-3.06731 -2.73956,-7.36012 -0.69112,-10.90481c2.04844,-3.54469 5.96719,-5.34019 9.79331,-4.85569c0.57356,-2.40112 0.90844,-4.89844 0.90844,-7.47769c0,-2.57925 -0.33488,-5.073 -0.91556,-7.47769z" fill="url(#color-5)"></path><circle cx="24" cy="20.5" transform="scale(3.5625,3.5625)" r="5" fill="url(#color-6)"></circle><circle cx="24" cy="20.5" transform="scale(3.5625,3.5625)" r="3" fill="url(#color-7)"></circle></g></g></svg>