<svg version="1.1" xmlns="http://www.w3.org/2000/svg" xmlns:xlink="http://www.w3.org/1999/xlink" viewBox="0 0 171 171"><defs><linearGradient x1="24.92681" y1="23.12775" x2="145.16831" y2="146.94244" gradientUnits="userSpaceOnUse" id="color-1"><stop offset="0" stop-color="#ffd869"></stop><stop offset="1" stop-color="#fec52b"></stop></linearGradient><radialGradient cx="136.28344" cy="136.43663" r="44.03963" gradientUnits="userSpaceOnUse" id="color-2"><stop offset="0" stop-color="#000000"></stop><stop offset="1" stop-color="#000000" stop-opacity="0"></stop></radialGradient><linearGradient x1="110.18456" y1="110.18456" x2="160.56544" y2="160.56544" gradientUnits="userSpaceOnUse" id="color-3"><stop offset="0" stop-color="#21ad64"></stop><stop offset="1" stop-color="#088242"></stop></linearGradient></defs><g fill="none" fill-rule="nonzero" stroke="none" stroke-width="1" stroke-linecap="butt" stroke-linejoin="miter" stroke-miterlimit="10" stroke-dasharray="" stroke-dashoffset="0" font-family="none" font-weight="none" font-size="none" text-anchor="none" style="mix-blend-mode: normal"><path d="M0,171.99654v-171.99654h171.99654v171.99654z" fill="none"></path><g><path d="M142.5,149.625h-114c-3.91875,0 -7.125,-3.20625 -7.125,-7.125v-114c0,-3.91875 3.20625,-7.125 7.125,-7.125h114c3.91875,0 7.125,3.20625 7.125,7.125v114c0,3.91875 -3.20625,7.125 -7.125,7.125z" fill="url(#color-1)"></path><path d="M67.6875,21.375h35.625v17.8125h-35.625z" fill="#fff8e6"></path><rect x="10" y="37" transform="scale(3.5625,3.5625)" width="10" height="2" fill="#6b5f41"></rect><path d="M71.25,114l-7.125,-7.125l-7.125,7.125h3.5625v10.6875h7.125v-10.6875z" fill="#6b5f41"></path><path d="M49.875,114l-7.125,-7.125l-7.125,7.125h3.5625v10.6875h7.125v-10.6875z" fill="#6b5f41"></path><path d="M135.375,92.625c-23.57306,0 -42.75,19.17694 -42.75,42.75c0,5.00175 0.90844,9.78619 2.49375,14.25h47.38125c3.91875,0 7.125,-3.20625 7.125,-7.125v-47.38125c-4.46381,-1.58531 -9.24825,-2.49375 -14.25,-2.49375z" fill="url(#color-2)"></path><path d="M171,135.375c0,19.67212 -15.95288,35.625 -35.625,35.625c-19.67212,0 -35.625,-15.95288 -35.625,-35.625c0,-19.67212 15.95288,-35.625 35.625,-35.625c19.67212,0 35.625,15.95288 35.625,35.625z" fill="url(#color-3)"></path><path d="M130.55138,150.88613l-14.25,-14.25c-0.69469,-0.69469 -0.69469,-1.824 0,-2.51869l2.51869,-2.51869c0.69469,-0.69469 1.824,-0.69469 2.51869,0l10.47375,10.47019l19.37644,-19.37644c0.69469,-0.69469 1.824,-0.69469 2.51869,0l2.51869,2.51869c0.69469,0.69469 0.69469,1.824 0,2.51869l-23.15625,23.15625c-0.69469,0.69469 -1.82044,0.69469 -2.51869,0z" fill="#ffffff"></path></g></g></svg>