<svg width="368" height="450" xmlns="http://www.w3.org/2000/svg" xmlns:xlink="http://www.w3.org/1999/xlink" overflow="hidden"><defs><clipPath id="clip0"><rect x="-250" y="126" width="368" height="450"/></clipPath><clipPath id="clip1"><rect x="-250" y="127" width="367" height="448"/></clipPath><clipPath id="clip2"><rect x="-251" y="127" width="368" height="448"/></clipPath></defs><g clip-path="url(#clip0)" transform="translate(250 -126)"><g clip-path="url(#clip1)"><g clip-path="url(#clip2)"><path d="M836.607 776.265C835.59 776.207 834.58 776.09 833.569 776.09L760.541 776.09 760.541 668.267 834.477 668.267 834.477 686.568 782.114 686.568 782.114 712.277 833.064 712.277 833.064 730.791 782.107 730.791 782.107 757.474C782.636 757.552 783.169 757.603 783.703 757.627L834.99 757.627C835.534 757.601 836.077 757.543 836.615 757.452Z" fill="#FFF" transform="matrix(1.00137 0 0 1 -504.045 47.2002)"/><path d="M606.636 776.038C612.983 780.467 625.933 781.895 640.779 779.772 641.356 781.1 641.845 782.464 642.243 783.856 642.381 784.62 642.168 785.404 641.665 785.994 637.075 790.145 632.463 794.281 627.697 798.234 626.738 799.032 625.135 799.303 623.81 799.354 614.696 799.712 606.138 797.355 597.823 793.863 589.119 790.203 581.081 785.364 573.255 780.13 571.642 779.047 569.875 778.212 568.014 777.656 546.399 771.401 530.632 752.808 527.993 730.461 524.669 701.37 544.339 674.423 573.182 668.567 599.338 663.26 624.952 674.423 637.331 697.117 650.888 721.918 645.691 757.642 611.988 773.688 610.267 774.501 608.488 775.233 606.636 776.038ZM548.878 721.574C548.878 742.137 565.532 759.026 585.898 759.026 605.787 759.026 622.653 742.189 623.049 722.533 623.429 703.625 608.086 684.665 586.593 684.467 565.444 684.328 548.907 700.696 548.878 721.574Z" fill="#FFF" transform="matrix(1.00137 0 0 1 -504.045 47.2002)"/><path d="M243.77 776.236 243.77 659.724C244.298 659.606 244.834 659.528 245.373 659.49 258.382 659.49 271.405 659.314 284.406 659.68 293.469 659.929 301.88 662.608 308.563 669.197 315.078 675.646 317.348 683.838 316.711 692.622 315.979 702.944 315.108 704.1 305.276 713.851 306.213 714.305 307.085 714.737 307.963 715.147 329.485 725.337 329.426 750.241 319.676 762.29 313.043 770.511 304.098 774.691 293.857 775.584 285.138 776.316 276.331 776.097 267.554 776.192 259.736 776.302 251.896 776.236 243.77 776.236ZM264.78 727.079C264.78 736.728 264.78 745.878 264.853 755.029 264.853 755.497 265.892 756.354 266.449 756.354 274.274 756.354 282.115 756.427 289.918 755.973 294.662 755.702 299.281 754.326 301.843 749.655 306.623 740.937 302.253 730.622 292.663 728.302 283.571 726.084 274.304 727.548 264.787 727.079ZM264.919 706.926C270.131 708.031 281.836 707.051 286.331 705.228 290.826 703.405 293.652 700.338 294.274 695.579 295.569 685.331 292.334 680.411 283.088 679.475 277.232 678.896 271.222 679.299 265.278 679.284 265.168 679.284 265.051 679.467 264.919 679.592Z" fill="#FFF" transform="matrix(1.00137 0 0 1 -504.045 47.2002)"/><path d="M449.02 722.255C448.874 740.08 441.48 754.304 427.527 765.167 402.331 784.786 364.352 780.621 344.133 756.097 325.898 733.982 328.131 702.834 349.382 682.71 377.2 656.357 424.665 663.677 442.9 697.183 446.817 704.379 448.662 711.933 449.02 722.255ZM353.203 722.255C353.203 742.306 369.674 758.323 390.318 758.337 411.108 758.337 427.652 742.35 427.718 722.255 427.718 702.3 410.925 685.917 390.42 685.917 369.916 685.917 353.203 702.139 353.203 722.219Z" fill="#FFF" transform="matrix(1.00137 0 0 1 -504.045 47.2002)"/><path d="M42.4585 659.709 115.992 659.709 115.992 678.83 63.9586 678.83 63.9586 707.38 114.469 707.38 114.469 727.182 63.9293 727.182 63.9293 756.551 117.778 756.551 117.778 776.038 42.4585 776.038Z" fill="#FFF" transform="matrix(1.00137 0 0 1 -504.045 47.2002)"/><path d="M653.245 667.696 673.12 667.696 673.12 670.485C673.12 689.381 673.12 708.278 673.12 727.174 673.12 730.534 673.369 733.902 673.53 737.262 673.86 744.385 677.718 749.429 683.618 752.693 694.599 758.791 705.996 758.843 717.043 752.818 724.254 748.879 727.504 742.328 727.497 734.107 727.467 713.014 727.467 691.924 727.497 670.836L727.497 667.828 747.474 667.828 747.474 733.397C747.474 754.304 736.098 769.267 715.696 774.34 700.484 778.146 685.631 777.078 671.971 768.615 659.007 760.563 653.062 748.674 653.121 733.477 653.209 711.992 653.121 690.506 653.121 669.058 653.15 668.684 653.201 668.304 653.245 667.696Z" fill="#FFF" transform="matrix(1.00137 0 0 1 -504.045 47.2002)"/><path d="M517.444 698.683C513.316 695.887 509.589 693.156 505.658 690.755 499.143 686.78 492.079 685.082 484.51 686.817 482.617 687.293 480.836 688.136 479.268 689.299 475.608 691.956 474.949 695.887 477.994 699.225 480.735 702.23 483.819 704.903 487.182 707.19 493.148 711.216 499.451 714.737 505.483 718.624 507.842 720.172 510.075 721.905 512.159 723.807 521.61 732.269 525.014 746.273 520.248 757.737 516.192 767.495 508.36 773.044 498.353 775.167 483.638 778.293 469.847 775.899 457.666 766.536 456.938 766.014 456.449 765.224 456.304 764.34 456.224 756.185 456.304 748.03 456.304 739.875 456.304 739.751 456.428 739.619 456.648 739.202 457.915 740.542 459.108 741.823 460.308 743.082 465.396 748.352 470.689 753.374 477.811 755.827 482.856 757.677 488.354 757.894 493.528 756.449 497.416 755.329 500.512 753.155 501.251 748.806 502.063 745 500.485 741.082 497.262 738.902 492.233 735.307 486.933 732.101 481.838 728.602 476.157 724.707 470.41 720.879 465.001 716.655 452.973 707.314 453.112 687.154 464.781 676.737 472.482 669.863 481.735 667.506 491.75 667.762 500.358 667.981 508.374 670.609 515.863 674.804 516.629 675.22 517.178 675.946 517.371 676.795 517.488 684.028 517.444 691.231 517.444 698.683Z" fill="#FFF" transform="matrix(1.00137 0 0 1 -504.045 47.2002)"/><path d="M129.886 667.623 151.116 667.623 151.116 757.737 205.382 757.737 205.382 776.097 129.886 776.097Z" fill="#FFF" transform="matrix(1.00137 0 0 1 -504.045 47.2002)"/><path d="M153.575 550.43C153.659 550.818 153.716 551.212 153.744 551.609 153.744 567.487 154.197 583.387 153.531 599.235 152.799 617.492 139.703 631.204 117.661 628.612 102.098 626.775 92.1568 616.167 91.1905 600.37 90.5317 589.587 90.8099 578.745 90.7074 567.933 90.6561 562.172 90.7074 556.411 90.7074 550.445L96.8712 550.445 96.8712 553.256C96.8712 567.553 96.8126 581.849 96.8712 596.146 96.9151 602.947 98.5549 609.323 103.262 614.506 110.839 622.873 120.443 624.161 130.618 621.277 140.662 618.43 145.662 610.86 147.075 600.78 147.402 598.109 147.549 595.418 147.514 592.727 147.558 579.609 147.514 566.498 147.514 553.388L147.514 550.386Z" fill="#FFF" transform="matrix(1.00137 0 0 1 -504.045 47.2002)"/><path d="M578.423 622.646 578.423 554.983C579.734 554.983 580.898 554.983 582.084 554.983 591.154 555.13 600.268 554.83 609.301 555.547 623.788 556.689 635.237 567.992 637.294 582.45 639.139 595.421 635.969 606.753 625.772 615.531 619.542 620.896 611.988 622.661 603.994 622.785 596 622.91 587.889 622.829 579.836 622.785 579.363 622.77 578.891 622.723 578.423 622.646ZM584.199 617.998C591.41 617.998 598.503 618.21 605.582 617.946 613.378 617.654 620.223 614.967 625.347 608.679 631.167 601.475 632.829 593.152 631.709 584.192 630.311 572.955 622.58 561.901 609.462 560.591 601.241 559.778 592.925 560.013 584.646 559.793 584.529 559.793 584.404 559.976 584.236 560.122Z" fill="#FFF" transform="matrix(1.00137 0 0 1 -504.045 47.2002)"/><path d="M233.229 554.156 238.353 554.156 238.353 621.585C235.535 622.156 233.361 621.877 231.223 619.264 215.887 600.48 200.353 581.857 184.892 563.175 184.717 562.908 184.57 562.623 184.453 562.326L183.772 562.604 183.772 621.665 178.567 621.665 178.567 554.259C181.4 553.893 183.816 553.658 186.144 556.513 201.092 574.814 216.267 592.903 231.377 611.058 231.809 611.585 232.314 612.046 233.243 613.027Z" fill="#FFF" transform="matrix(1.00137 0 0 1 -504.045 47.2002)"/><path d="M726.113 622.646 726.113 555.379C726.311 555.24 726.442 555.079 726.567 555.079 736.911 555.218 747.298 554.742 757.569 555.672 770.358 556.828 778.644 564.639 783.08 576.44 788.688 591.344 783.681 608.071 771.236 617.068 766.521 620.467 760.897 622.376 755.087 622.551 745.541 622.91 735.981 622.646 726.113 622.646ZM731.471 617.661C739.663 617.661 747.635 618.02 755.57 617.573 764.904 617.053 771.624 611.995 775.965 603.811 779.171 597.757 779.955 591.241 779.171 584.521 777.971 574.082 770.892 562.077 757.005 560.62 748.726 559.749 740.329 560.027 731.984 559.8 731.859 559.8 731.735 559.954 731.471 560.137Z" fill="#FFF" transform="matrix(1.00137 0 0 1 -504.045 47.2002)"/><path d="M429.167 622.683 424.16 622.683 424.16 555.335C424.241 555.262 424.365 555.071 424.475 555.071 432.579 555.313 440.785 554.881 448.764 556.008 457.358 557.216 461.597 562.553 462.256 570.437 462.922 578.489 459.327 584.294 451.707 587.662 451.165 587.903 450.631 588.167 450.104 588.394 457.622 595.487 461.758 604.762 467.504 612.888 469.7 615.948 471.604 619.184 473.697 622.404 468.822 623.437 468.207 623.18 465.769 619.432 461.289 612.559 456.56 605.831 452.388 598.774 448.493 592.186 442.827 589.909 435.551 589.99 429.145 590.078 429.145 589.938 429.145 596.424L429.145 622.58ZM429.167 559.222 429.167 580.041C429.167 585.729 429.167 585.898 434.877 585.649 439.482 585.458 444.189 585.919 448.632 584.045 454.32 581.652 456.846 577.325 456.333 570.605 455.938 565.364 452.541 561.133 446.875 560.298 441.209 559.464 435.309 559.551 429.167 559.222Z" fill="#FFF" transform="matrix(1.00137 0 0 1 -504.045 47.2002)"/><path d="M705.879 622.587C705.586 622.688 705.285 622.767 704.979 622.822 700.77 623.093 700.784 623.085 699.159 619.213 696.809 613.613 694.394 608.034 692.11 602.376 691.502 600.912 690.792 600.18 689.028 600.18 681.048 600.289 673.069 600.275 665.09 600.18 663.742 600 662.469 600.844 662.11 602.156 659.805 607.859 657.374 613.518 654.988 619.184 653.289 623.224 652.953 623.393 648.282 622.419 650.722 616.665 653.162 610.936 655.603 605.231 662.074 590.068 668.56 574.914 675.06 559.771 675.448 558.878 676.349 558.219 677.015 557.45 677.747 558.248 678.728 558.914 679.13 559.852 687.744 579.861 696.316 599.87 704.847 619.879 705.198 620.809 705.521 621.68 705.879 622.587ZM689.372 595.78C685.316 586.022 681.363 576.52 677.161 566.396 672.871 576.586 668.889 586.059 664.804 595.78Z" fill="#FF" transform="matrix(1.00137 0 0 1 -504.045 47.2002)"/><path d="M362.939 554.983 398.912 554.983 398.912 559.2 393.224 559.2C385.562 559.2 377.9 559.2 370.238 559.2 368.964 559.2 367.947 559.156 367.968 560.979 368.042 569.031 367.968 577.084 368.012 585.136 368.05 585.508 368.111 585.877 368.195 586.242L397.807 586.242C397.872 587.654 397.924 588.862 397.99 590.37 396.994 590.414 396.159 590.48 395.332 590.48 387.038 590.48 378.744 590.553 370.443 590.48 368.43 590.48 367.925 591.102 367.947 593.035 368.049 600.619 368.086 608.203 367.947 615.779 367.895 618.1 368.744 618.51 370.801 618.488 379.41 618.4 388.019 618.451 396.628 618.451L399.6 618.451 399.6 622.712 362.939 622.712Z" fill="#FFF" transform="matrix(1.00137 0 0 1 -504.045 47.2002)"/><path d="M488.543 612.383C493.14 614.381 497.511 616.826 502.196 618.129 505.043 618.92 508.513 618.466 511.456 617.668 516.397 616.336 519.128 612.595 519.794 607.522 520.526 602.266 519.274 597.72 514.245 595.019 511.061 593.298 507.745 591.827 504.502 590.202 501.83 588.862 499.121 587.567 496.537 586.059 490.864 582.757 488.419 577.64 488.748 571.191 489.129 563.665 492.862 558.278 499.824 555.547 507.745 552.451 515.336 554.083 522.517 558.117 523.036 558.523 523.36 559.129 523.41 559.786 523.542 561.191 523.454 562.619 523.454 564.493L521.126 563.087C516.214 560.122 511.024 558.329 505.168 559.149 497.386 560.232 492.284 567.618 494.612 575.071 495.375 577.368 496.843 579.366 498.806 580.781 502.093 583.021 505.885 584.529 509.472 586.329 512.005 587.611 514.641 588.716 517.071 590.158 523.85 594.192 526.661 600.751 525.321 609.008 524.238 615.736 518.601 621.614 511.646 623.137 503.594 624.886 496.274 623.085 489.605 618.532 489.031 618.071 488.661 617.403 488.573 616.673 488.448 615.113 488.543 613.532 488.543 612.383Z" fill="#FFF" transform="matrix(1.00137 0 0 1 -504.045 47.2002)"/><path d="M317.128 624.03 288.535 554.991C290.186 554.88 291.844 554.91 293.49 555.079 294.303 555.405 294.941 556.059 295.247 556.879 299.588 567.538 303.856 578.226 308.139 588.914 310.872 595.721 313.605 602.527 316.338 609.33 316.623 610.062 316.967 610.721 317.501 611.9 319.954 605.89 322.216 600.363 324.463 594.836 329.426 582.64 334.478 570.473 339.265 558.234 340.312 555.532 341.695 554.5 344.426 555.005 344.938 555.1 345.48 555.1 346.329 555.166L317.897 624.044Z" fill="#FFF" transform="matrix(1.00137 0 0 1 -504.045 47.2002)"/><path d="M547.509 555.079 552.831 555.079 552.831 622.668 547.509 622.668Z" fill="#FFF" transform="matrix(1.00137 0 0 1 -504.045 47.2002)"/><path d="M263.433 555.071 268.711 555.071 268.711 622.661 263.433 622.661Z" fill="#FFF" transform="matrix(1.00137 0 0 1 -504.045 47.2002)"/><path d="M253.916 173.882C254.29 173.194 254.707 172.528 255.029 171.825 256.562 168.084 260.837 166.294 264.578 167.827 265.527 168.216 266.384 168.8 267.093 169.541 267.758 170.288 268.602 170.855 269.545 171.188L269.545 150.332C267.13 150.925 264.099 152.096 261.024 152.228 259.626 152.287 257.781 150.523 256.764 149.154 254.487 146.079 255.659 141.687 258.96 139.637 263.352 136.951 266.588 138.297 271.141 145.069 272.32 141.372 273.279 137.997 274.472 134.703 275.665 131.409 277.144 127.998 278.864 123.766 275.043 125.655 271.661 127.339 268.44 124.696 267.113 123.649 266.117 122.24 265.57 120.641 264.421 116.607 266.976 112.888 271.171 111.922 275.365 110.956 277.971 113.467 280.372 120.933 281.295 119.689 282.034 118.796 282.664 117.83 297.304 95.5169 318.46 83.2698 345.239 79.983 348.7 79.6142 352.199 79.812 355.597 80.5686 367.171 83.0063 371.211 93.2037 364.25 102.471 355.538 114.067 346.571 125.487 337.72 136.98 329.502 147.658 321.286 158.341 313.073 169.029 309.288 173.985 307.326 179.519 309.551 185.558 310.577 188.323 312.231 190.811 314.383 192.827 330.21 207.168 346.256 221.238 362.134 235.535 364.696 237.848 366.6 240.864 368.92 243.69 369.119 243.311 369.255 242.903 369.323 242.482 369.586 236.047 369.623 229.605 370.055 223.185 371.299 205.616 372.507 188.091 374.162 170.581 375.113 160.486 376.995 150.486 378.261 140.413 378.576 137.946 379.769 137.521 381.921 137.536 391.101 137.595 400.286 137.595 409.475 137.536 411.847 137.536 412.638 137.953 412.191 140.662 409.431 157.345 406.686 174.043 404.483 190.8 403.355 199.401 403.246 208.127 402.858 216.809 402.331 228.309 401.584 239.817 401.65 251.318 401.745 268.03 402.001 284.765 403.07 301.433 404.358 321.564 406.269 341.695 408.45 361.731 413.19 405.197 421.839 448.146 434.292 490.059 434.784 491.933 435.624 493.698 436.766 495.263 437.348 494.041 437.868 492.79 438.325 491.515 447.597 460.671 454.763 429.234 459.774 397.419 462.453 380.582 464.488 363.686 466.253 346.761 467.841 331.513 469.181 316.198 469.693 300.891 470.55 276.734 471.384 252.577 470.901 228.419 470.323 199.094 467.351 169.9 460.982 141.138 460.762 140.164 460.718 139.154 460.572 137.939 461.382 137.779 462.201 137.669 463.024 137.609 472.328 137.609 481.633 137.668 490.93 137.558 493.55 137.521 494.692 138.407 494.985 140.962 497.042 158.765 499.59 176.525 501.193 194.357 502.496 208.852 502.716 223.427 503.389 237.972 503.448 239.1 503.389 240.234 503.587 241.347 503.784 242.46 504.106 243.477 504.487 244.956 509.245 234.349 519.128 228.983 526.844 221.67 536.909 212.117 547.56 203.156 557.919 193.896 566.074 186.576 566.923 177.791 560.276 169.16 543.62 147.394 526.924 125.658 510.19 103.95 507.43 100.37 504.97 96.6296 505.841 91.8933 507.166 84.6827 513.572 79.8146 522.137 79.9171 543.695 80.166 562.245 87.9037 577.669 102.354 582.633 107.017 586.498 112.793 590.846 118.071 591.52 118.884 592.105 119.769 592.925 120.889 596.014 112.8 598.686 110.641 603.174 112.281 607.31 113.745 609.228 117.734 607.698 121.607 605.97 125.999 601.966 126.878 594.763 124.096 596.227 127.756 597.691 131.028 598.847 134.344 600.004 137.661 601.043 141.196 601.885 143.861 604.645 142.053 607.281 139.842 610.318 138.568 611.534 138.063 613.913 139.3 615.318 140.333 618.408 142.573 618.612 147.111 616.087 150.039 613.012 153.612 608.832 153.348 603.796 149.307L603.796 171.547C610.121 166.591 614.242 166.24 617.31 169.936 619.725 172.953 619.238 177.358 616.221 179.773 616.069 179.895 615.912 180.01 615.75 180.119 611.695 182.923 608.013 181.634 603.635 175.668 601.922 182.33 600.268 188.772 598.584 195.294 606.38 193.354 610.165 194.46 611.38 198.955 612.449 202.915 610.421 206.399 606.256 207.702 601.863 209.101 598.935 206.875 596.424 200.118L583.804 214.027C585.056 214.115 586.103 214.21 587.157 214.269 591.446 214.525 594.477 217.929 594.038 222.014 593.65 225.725 589.99 228.815 586.359 228.492 582.215 228.075 579.195 224.378 579.612 220.235 579.616 220.198 579.62 220.162 579.624 220.125 579.719 219.488 579.785 218.844 579.865 218.207L579.082 217.563 563.57 231.325C572.838 233.156 575.041 234.92 574.514 239.729 573.988 243.422 570.752 246.116 567.026 245.966 562.406 245.673 560.613 242.716 560.261 234.122 556.162 237.936 552.209 241.223 548.776 244.963 546.532 247.316 546.34 250.952 548.322 253.528 551.814 258.104 555.913 262.232 559.339 266.068 560.496 262.913 561.213 259.758 562.824 257.108 563.556 255.944 566.074 255.336 567.772 255.344 571.901 255.344 574.734 258.777 574.529 262.854 574.28 267.642 570.964 269.479 562.34 269.033L575.188 282.883C576.879 280.014 578.065 277.144 580.063 274.977 581.015 273.938 583.526 273.901 585.29 273.996 588.57 274.186 591.307 277.591 591.241 280.877 591.154 285.116 588.379 287.005 580.18 287.978 593.357 300.664 587.742 310.818 575.349 320.188 579.448 320.232 582.984 320.393 584.953 323.709 585.837 325.136 586.266 326.798 586.183 328.475 585.744 332.56 581.791 335.063 577.552 334.419 573.314 333.775 571.381 330.217 571.374 323.438L558.256 335.151C566.308 335.092 569.632 337.347 569.646 342.223 569.564 346.046 566.554 349.161 562.736 349.375 557.802 349.572 555.584 346.344 555.262 337.42 550.869 341.739 546.55 345.195 543.41 349.47 542.121 351.219 542.443 355.282 543.688 357.354 546.345 361.746 550.086 365.582 553.937 369.703 553.988 365.955 553.819 362.076 557.75 360.297 559.568 359.59 561.542 359.38 563.468 359.689 566.703 360.165 568.914 363.825 568.453 367.222 567.809 371.958 564.924 373.32 556.008 372.756L568.775 388.261C570.012 385.42 570.759 382.5 572.435 380.289 573.365 379.088 575.927 378.627 577.75 378.627 581.688 378.627 584.704 382.448 584.265 386.328 583.709 391.123 579.814 393.056 572.055 391.877 572.999 393.231 573.643 394.176 574.317 395.091 580.283 403.143 578.892 412.037 570.656 418.004 567.728 420.134 564.756 422.213 562.377 423.911 565.305 425.807 568.189 427.322 570.554 429.416 571.432 430.199 571.469 432.425 571.147 433.808 570.261 437.761 566.454 440.155 562.941 439.343 557.897 438.186 556.491 435.111 557.816 426.956L543.176 437.066C543.176 437.395 543.124 437.717 543.102 438.047 546.909 438.047 550.679 438.318 552.187 442.095 552.822 443.771 552.98 445.591 552.641 447.351 551.989 450.601 547.795 452.863 544.53 452.109 539.559 450.96 538.161 448.047 539.281 440.009 536.587 441.773 534.42 443.281 532.173 444.665 522.203 450.799 521.778 455.235 528.396 463.859 530.936 467.16 533.161 470.689 536.126 474.107 536.551 470.396 536.668 466.655 540.76 465.323 542.499 464.75 544.362 464.661 546.148 465.067 549.808 466.04 551.74 470.191 550.664 473.851 549.456 477.98 545.54 479.283 538.564 477.563 538.837 478.415 539.182 479.243 539.596 480.037 541.477 482.892 543.49 485.666 545.342 488.543 550.074 495.515 548.258 505.002 541.287 509.734 541.216 509.781 541.146 509.828 541.075 509.875 534.062 514.677 524.525 513.203 519.289 506.508 514.253 500.153 509.619 493.499 504.824 486.969 498.521 478.412 492.116 469.971 486.076 461.231 483.756 457.863 482.416 453.859 480.571 450.06 480.366 450.682 479.956 451.714 479.671 452.776 473.158 476.476 465.231 499.765 455.931 522.517 454.737 525.445 453.178 526.646 449.796 526.551 440.851 526.295 431.89 526.331 422.938 526.551 419.856 526.624 418.457 525.548 417.337 522.825 408.125 500.402 400.254 477.451 393.766 454.093 393.444 452.937 393.034 451.802 392.624 450.616 387.36 464.693 376.519 474.971 368.466 487.006 364.037 493.638 359.177 500.007 354.279 506.324 350.216 511.566 344.616 513.586 337.991 512.181 331.366 510.775 327.487 506.676 325.817 500.468 324.595 495.9 325.817 491.764 328.431 487.921 330.627 484.678 332.823 481.413 334.624 478.727 331.293 478.185 328.094 477.994 325.166 477.028 324.009 476.647 323.014 474.649 322.677 473.229 321.725 469.181 323.958 465.638 327.757 464.84 330.539 464.254 333.401 464.627 334.983 467.036 336.264 468.976 336.622 471.501 337.545 474.203 338.438 473.06 339.287 472.072 340.026 471.011 342.632 467.263 345.275 463.537 347.764 459.723 350.568 455.44 349.667 450.755 345.495 447.739 341.882 445.102 338.131 442.658 334.258 440.419 334.953 444.167 335.671 447.842 332.289 450.418 330.916 451.463 329.288 452.118 327.574 452.314 324.148 452.622 320.796 449.489 320.474 446.129 320.005 441.261 322.413 439.123 330.927 437.63L315.613 426.927C316.821 435.258 315.32 438.435 310.225 439.416 306.718 440.089 302.985 437.417 302.07 433.559 301.009 429.123 303.578 426.664 312.018 424.57 308.805 422.271 305.767 420.456 303.19 418.143 300.774 415.947 298.315 413.545 296.829 410.756 294.223 405.859 295.203 400.866 298.227 396.284 299.156 394.878 300.196 393.553 301.843 391.269 297.509 392.733 293.878 393.466 291.287 390.354 290.083 388.884 289.367 387.075 289.237 385.179 289.062 381.24 292.641 378.268 296.748 378.444 301.528 378.649 304.003 382.104 304.266 388.612 308.556 383.407 312.853 378.202 317.538 372.507 308.907 373.547 305.547 371.958 304.896 367.024 304.446 363.347 307.008 359.981 310.672 359.433 316.14 358.701 318.094 360.816 319.8 370.187 323.775 364.865 327.589 360.399 330.539 355.451 331.498 353.84 331.022 350.326 329.763 348.789 326.469 344.829 322.377 341.469 318.212 337.537 317.545 346.498 315.283 349.675 310.43 349.25 306.49 348.973 303.52 345.555 303.797 341.615 303.797 341.61 303.797 341.605 303.798 341.6 304.068 337.098 307.509 334.902 315.196 335.151L301.433 322.831C301.667 331.271 299.669 334.375 294.53 334.441 290.467 334.492 287.041 331.308 287.063 327.494 287.063 322.97 290.723 320.422 298.322 320.386 296.397 318.563 294.918 317.326 293.652 315.906 291.389 313.373 288.63 311.023 287.202 308.08 284.274 302.107 285.738 296.419 290.13 291.448 291.031 290.438 291.939 289.442 293.571 287.634 291.602 287.634 290.548 287.634 289.501 287.634 285.46 287.546 282.29 284.655 282.18 280.958 282.071 277.261 285.218 274.004 289.076 273.864 293.403 273.711 296.455 276.28 296.836 280.402 296.916 281.251 297.012 282.1 297.202 283.908L311.001 269.106C301.843 269.267 298.827 267.43 298.886 262.262 298.908 258.332 302.112 255.165 306.042 255.187 306.097 255.188 306.151 255.188 306.206 255.19 311.038 255.307 313.19 258.77 313.688 266.698 317.677 261.976 321.945 257.445 325.488 252.423 326.513 250.959 326.315 247.467 325.166 246.069 321.703 241.86 317.501 238.221 312.948 233.727 313.219 242.306 311.052 245.805 306.213 245.966 302.484 246.061 299.302 243.284 298.893 239.576 298.439 234.539 301.155 232.438 310.02 231.523L294.23 217.439 293.373 217.614C294.215 221.165 294.201 224.547 290.95 226.699 289.542 227.677 287.889 228.242 286.177 228.331 282.433 228.238 279.425 225.217 279.347 221.472 279.186 216.846 281.8 214.833 289.494 213.895L276.976 200.082C276.675 200.887 276.302 201.853 275.958 202.827 274.494 206.985 270.607 208.947 266.661 207.534 262.715 206.121 260.805 202.271 262.181 198.471 263.557 194.672 267.84 192.922 271.91 194.445 272.766 194.767 273.608 195.126 274.911 195.646 273.176 188.816 271.522 182.359 269.831 175.727 269.436 176.071 269.099 176.239 268.967 176.503 267.554 179.563 265.131 181.576 261.72 181.473 258.177 181.364 255.724 179.277 254.663 175.851 254.582 175.595 254.165 175.427 253.931 175.222ZM504.831 250.988C503.284 283.125 501.771 314.661 500.292 345.597 502.569 343.152 505.058 340.078 507.964 337.45 519.121 327.384 530.445 317.501 541.638 307.487 546.36 303.263 546.536 298.703 542.304 294.149 534.574 285.87 526.631 277.774 519.099 269.333 514.048 263.689 507.488 259.143 504.831 250.988ZM499.59 353.906C494.165 383.642 488.704 413.582 483.397 442.637 486.032 440.499 489.048 437.71 492.401 435.375 505.248 426.429 518.213 417.645 531.104 408.758 536.653 404.937 537.327 399.973 532.956 394.9 526.368 387.294 519.567 379.857 513.103 372.156 508.301 366.431 502.079 361.666 499.846 354.133 499.773 353.884 499.37 353.73 499.59 353.906ZM368.496 252.884C366.731 255.183 365.026 257.825 362.91 260.109 352.661 271.192 342.347 282.222 331.967 293.198 326.593 298.908 326.674 302.941 332.596 308.234 344.228 318.621 355.941 328.921 367.559 339.331 369.386 341.128 371.116 343.022 372.741 345.004 371.321 314.273 369.906 283.574 368.496 252.906ZM373.752 355.041C372.002 357.581 370.187 360.824 367.793 363.605 358.796 374.11 349.58 384.432 340.502 394.871 335.964 400.098 336.681 404.907 342.493 408.919 348.174 412.843 353.957 416.627 359.557 420.632 369.747 427.952 380.83 434.109 389.622 442.22 384.322 413.26 379 383.868 373.752 355.041ZM328.006 111.702C331.718 111.615 335.158 108.189 335.1 104.645 335.041 101.102 331.542 97.7204 327.831 97.7643 324.119 97.8082 320.686 101.205 320.759 104.814 320.832 108.423 324.361 111.783 328.006 111.702ZM545.518 111.702C549.178 111.702 552.656 108.276 552.633 104.689 552.612 101.102 549.105 97.7277 545.43 97.7643 541.755 97.8009 538.278 101.212 538.307 104.785 538.337 108.357 541.836 111.724 545.518 111.695Z" fill="#FFF" transform="matrix(1.00137 0 0 1 -504.045 47.2002)"/></g></g></g></svg>
