<svg version="1.1" xmlns="http://www.w3.org/2000/svg" xmlns:xlink="http://www.w3.org/1999/xlink" viewBox="0 0 171 171"><defs><radialGradient cx="85.5" cy="84.16406" r="83.52014" gradientUnits="userSpaceOnUse" id="color-1"><stop offset="0" stop-color="#ffffff"></stop><stop offset="0.106" stop-color="#ffffff"></stop><stop offset="0.437" stop-color="#ffffff"></stop><stop offset="0.744" stop-color="#ffffff"></stop><stop offset="1" stop-color="#ffffff"></stop></radialGradient><linearGradient x1="86.83594" y1="197.96991" x2="86.83594" y2="28.15889" gradientUnits="userSpaceOnUse" id="color-2"><stop offset="0" stop-color="#3cb5ea"></stop><stop offset="1" stop-color="#7ddefb"></stop></linearGradient><linearGradient x1="86.83594" y1="53.4375" x2="86.83594" y2="32.0625" gradientUnits="userSpaceOnUse" id="color-3"><stop offset="0" stop-color="#3281e6"></stop><stop offset="1" stop-color="#3a99eb"></stop></linearGradient><linearGradient x1="86.83594" y1="122.90625" x2="86.83594" y2="74.8125" gradientUnits="userSpaceOnUse" id="color-4"><stop offset="0" stop-color="#2675c2"></stop><stop offset="1" stop-color="#308ad5"></stop></linearGradient><linearGradient x1="173.75738" y1="114.79444" x2="147.00389" y2="114.79444" gradientUnits="userSpaceOnUse" id="color-5"><stop offset="0" stop-color="#ff634d"></stop><stop offset="0.208" stop-color="#fd6464"></stop><stop offset="0.522" stop-color="#fc6582"></stop><stop offset="0.793" stop-color="#fa6694"></stop><stop offset="0.989" stop-color="#fa669a"></stop><stop offset="1" stop-color="#fa669a"></stop></linearGradient><linearGradient x1="156.9967" y1="141.76702" x2="112.92947" y2="141.76702" gradientUnits="userSpaceOnUse" id="color-6"><stop offset="0" stop-color="#ff9757"></stop><stop offset="1" stop-color="#ffb65b"></stop><stop offset="1" stop-color="#ffb65b"></stop></linearGradient><linearGradient x1="136.15341" y1="121.55161" x2="159.23039" y2="121.55161" gradientUnits="userSpaceOnUse" id="color-7"><stop offset="0" stop-color="#d8d8d8"></stop><stop offset="0.759" stop-color="#c9c9c9"></stop><stop offset="1" stop-color="#c3c3c3"></stop></linearGradient><linearGradient x1="144.98128" y1="160.71863" x2="105.05011" y2="160.71863" gradientUnits="userSpaceOnUse" id="color-8"><stop offset="0" stop-color="#ffce76"></stop><stop offset="0.004" stop-color="#ffce76"></stop><stop offset="0.605" stop-color="#ffcd92"></stop><stop offset="1" stop-color="#ffcca0"></stop><stop offset="1" stop-color="#ffcca0"></stop></linearGradient><linearGradient x1="102.05761" y1="165.8032" x2="112.4512" y2="165.8032" gradientUnits="userSpaceOnUse" id="color-9"><stop offset="0" stop-color="#a4a4a4"></stop><stop offset="0.63" stop-color="#7f7f7f"></stop><stop offset="1" stop-color="#6f6f6f"></stop><stop offset="1" stop-color="#6f6f6f"></stop></linearGradient></defs><g fill="none" fill-rule="nonzero" stroke="none" stroke-width="1" stroke-linecap="butt" stroke-linejoin="miter" stroke-miterlimit="10" stroke-dasharray="" stroke-dashoffset="0" font-family="none" font-weight="none" font-size="none" text-anchor="none" style="mix-blend-mode: normal"><path d="M0,171.99654v-171.99654h171.99654v171.99654z" fill="none"></path><g><path d="M157.64063,144.28125h-0.00267h-10.68483c-2.93906,0 -5.34375,-2.40469 -5.34375,-5.34375v0v0v0c0,-0.00802 0.00267,-0.01336 0.00267,-0.02138c0.01069,-2.86959 2.2898,-5.19145 5.13534,-5.301c0.06947,-0.00267 4.21622,-0.02137 4.21622,-0.02137c5.14069,0 9.34889,-4.2082 9.34889,-9.35156c0,-5.14336 -4.2082,-9.35156 -9.35156,-9.35156h-17.36719c-3.68986,0 -6.67969,-2.98983 -6.67969,-6.67969c0,-3.68986 2.98983,-6.67969 6.67969,-6.67969h21.375c4.40859,0 8.01563,-3.60703 8.01563,-8.01562c0,-4.40859 -3.60703,-8.01562 -8.01562,-8.01562h-42.75v-16.03125h48.09375c6.23883,0 11.27531,-5.41856 10.63139,-11.78297c-0.55842,-5.54681 -5.56284,-9.59203 -11.13637,-9.59203h-2.16689c-2.95242,0 -5.34375,-2.39133 -5.34375,-5.34375c0,-2.95242 2.39133,-5.34375 5.34375,-5.34375h0.95386c3.49481,0 6.67702,-2.51423 7.02703,-5.99034c0.40078,-3.9998 -2.72798,-7.36903 -6.64495,-7.36903h-40.07812c-2.21231,0 -4.00781,-1.7955 -4.00781,-4.00781c0,-2.21231 1.7955,-4.00781 4.00781,-4.00781h10.30542c3.49481,0 6.67702,-2.51423 7.02703,-5.99034c0.40078,-3.9998 -2.72798,-7.36903 -6.64495,-7.36903h-87.7898c-3.49481,0 -6.67702,2.51423 -7.02703,5.99034c-0.40078,3.9998 2.72798,7.36903 6.64495,7.36903h9.35156c2.95242,0 5.34375,2.39133 5.34375,5.34375c0,2.95242 -2.39133,5.34375 -5.34375,5.34375h-34.22939c-5.57353,0 -10.57528,4.04522 -11.13637,9.59203c-0.64392,6.36441 4.39256,11.78297 10.63139,11.78297h6.67969c5.16473,0 9.35156,4.18683 9.35156,9.35156c0,5.16473 -4.18683,9.35156 -9.35156,9.35156h-8.84658c-5.57353,0 -10.57528,4.04522 -11.13637,9.59203c-0.64392,6.36441 4.39256,11.78297 10.63139,11.78297h45.42188v29.39063h-42.75c-4.40859,0 -8.01562,3.60703 -8.01562,8.01563c0,4.40859 3.60703,8.01563 8.01563,8.01563c2.95242,0 5.34375,2.39133 5.34375,5.34375c0,2.95242 -2.39133,5.34375 -5.34375,5.34375h-4.83877c-5.57353,0 -10.57528,4.04522 -11.13637,9.59203c-0.64392,6.36441 4.39256,11.78297 10.63139,11.78297h146.44814c5.57353,0 10.57528,-4.04522 11.13637,-9.59203c0.64392,-6.36441 -4.39256,-11.78297 -10.63139,-11.78297z" fill="url(#color-1)"></path><path d="M136.26563,32.0625h-98.85937c-5.90217,0 -10.6875,4.78533 -10.6875,10.6875v96.1875c0,5.90217 4.78533,10.6875 10.6875,10.6875h98.85938c5.90217,0 10.6875,-4.78533 10.6875,-10.6875v-96.1875c0,-5.90217 -4.78533,-10.6875 -10.6875,-10.6875z" fill="url(#color-2)"></path><path d="M26.71875,42.75v10.6875h120.23438v-10.6875c0,-5.90217 -4.78533,-10.6875 -10.6875,-10.6875h-98.85937c-5.90217,0 -10.6875,4.78533 -10.6875,10.6875z" fill="url(#color-3)"></path><path d="M117.5625,122.90625h-40.07812c-2.95242,0 -5.34375,-2.39133 -5.34375,-5.34375v0c0,-2.95242 2.39133,-5.34375 5.34375,-5.34375h40.07813c2.95242,0 5.34375,2.39133 5.34375,5.34375v0c0,2.95242 -2.39133,5.34375 -5.34375,5.34375zM122.90625,98.85938v0c0,-2.95242 -2.39133,-5.34375 -5.34375,-5.34375h-40.07812c-2.95242,0 -5.34375,2.39133 -5.34375,5.34375v0c0,2.95242 2.39133,5.34375 5.34375,5.34375h40.07813c2.95242,0 5.34375,-2.39133 5.34375,-5.34375zM122.90625,80.15625v0c0,-2.95242 -2.39133,-5.34375 -5.34375,-5.34375h-40.07812c-2.95242,0 -5.34375,2.39133 -5.34375,5.34375v0c0,2.95242 2.39133,5.34375 5.34375,5.34375h40.07813c2.95242,0 5.34375,-2.39133 5.34375,-5.34375zM64.125,117.5625v0c0,-2.95242 -2.39133,-5.34375 -5.34375,-5.34375h-2.67187c-2.95242,0 -5.34375,2.39133 -5.34375,5.34375v0c0,2.95242 2.39133,5.34375 5.34375,5.34375h2.67188c2.95242,0 5.34375,-2.39133 5.34375,-5.34375zM64.125,98.85938v0c0,-2.95242 -2.39133,-5.34375 -5.34375,-5.34375h-2.67187c-2.95242,0 -5.34375,2.39133 -5.34375,5.34375v0c0,2.95242 2.39133,5.34375 5.34375,5.34375h2.67188c2.95242,0 5.34375,-2.39133 5.34375,-5.34375zM64.125,80.15625v0c0,-2.95242 -2.39133,-5.34375 -5.34375,-5.34375h-2.67187c-2.95242,0 -5.34375,2.39133 -5.34375,5.34375v0c0,2.95242 2.39133,5.34375 5.34375,5.34375h2.67188c2.95242,0 5.34375,-2.39133 5.34375,-5.34375z" fill="url(#color-4)"></path><path d="M169.8698,115.24866l-9.91533,-9.90998c-1.50694,-1.51228 -3.95972,-1.51228 -5.46666,0l-4.66777,4.66777l15.38466,15.38198l4.66509,-4.66777c1.50694,-1.51495 1.50694,-3.95972 0,-5.472" fill="url(#color-5)"></path><path d="M124.76053,165.83259l-15.38198,-15.38198l32.7465,-32.7465l15.38198,15.38198z" fill="url(#color-6)"></path><path d="M157.51505,133.08877l-15.39,-15.38198l7.68966,-7.69233l15.39,15.37931z" fill="url(#color-7)"></path><path d="M109.38122,150.43992l-5.17809,20.56008l20.56008,-5.17542z" fill="url(#color-8)"></path><path d="M106.81889,160.60641l-2.61577,10.39359l10.39359,-2.61577z" fill="url(#color-9)"></path></g></g></svg>