<svg version="1.1" xmlns="http://www.w3.org/2000/svg" xmlns:xlink="http://www.w3.org/1999/xlink" viewBox="0 0 171 171"><defs><linearGradient x1="98.02575" y1="12.51863" x2="158.47425" y2="72.96713" gradientUnits="userSpaceOnUse" id="color-1"><stop offset="0" stop-color="#3498db"></stop><stop offset="1" stop-color="#3498db"></stop></linearGradient><radialGradient cx="128.2463" cy="54.148" r="19.94929" gradientUnits="userSpaceOnUse" id="color-2"><stop offset="0.177" stop-color="#000000"></stop><stop offset="1" stop-color="#000000" stop-opacity="0"></stop></radialGradient></defs><g fill="none" fill-rule="nonzero" stroke="none" stroke-width="1" stroke-linecap="butt" stroke-linejoin="miter" stroke-miterlimit="10" stroke-dasharray="" stroke-dashoffset="0" font-family="none" font-weight="none" font-size="none" text-anchor="none" style="mix-blend-mode: normal"><path d="M0,171.99654v-171.99654h171.99654v171.99654z" fill="none"></path><g><path d="M142.5,153.1875h-64.125v-128.25h64.125c3.93656,0 7.125,3.18844 7.125,7.125v114c0,3.93656 -3.18844,7.125 -7.125,7.125z" fill="#f1c40f"></path><path d="M51.46744,11.4855c-0.50231,-0.25294 -1.04737,-0.37763 -1.59244,-0.37763v128.25c0.54506,0 1.09013,0.12469 1.59244,0.37762l26.90756,13.452v-128.25z" fill="#e67e22"></path><path d="M48.28256,11.4855l-22.96744,11.48194c-2.41537,1.20769 -3.94012,3.6765 -3.94012,6.37331v118.08263c0,2.64694 2.78588,4.37119 5.15494,3.18487l21.75263,-10.87631c0.50231,-0.24937 1.04738,-0.37762 1.59244,-0.37762v-128.25c-0.54506,0.00356 -1.09013,0.12825 -1.59244,0.38119z" fill="#f1c40f"></path><path d="M149.625,32.0625c0,-3.93656 -3.18844,-7.125 -7.125,-7.125h-57c-2.28713,5.48625 -3.5625,11.49975 -3.5625,17.8125c0,12.54713 5.01244,23.9115 13.11713,32.25488c0.04631,0.04631 29.55806,29.58656 29.55806,29.58656c2.00925,2.00925 5.26894,2.00925 7.27819,0c0,0 9.50475,-9.51188 17.73769,-17.75194v-54.777z" fill="#000000" opacity="0.05"></path><path d="M149.625,32.0625c0,-3.93656 -3.18844,-7.125 -7.125,-7.125h-55.03706c-2.39044,5.45775 -3.74419,11.47125 -3.74419,17.8125c0,12.06619 4.85925,22.95319 12.61125,31.01156c0.04275,0.04631 28.42163,28.44656 28.42163,28.44656c1.93088,1.93088 5.06587,1.93088 6.99675,0c0,0 9.804,-9.81113 17.87662,-17.89087z" fill="#000000" opacity="0.07"></path><path d="M158.89106,72.52181c7.48481,-7.69856 12.10894,-18.19012 12.10894,-29.77181c0,-23.60869 -19.14131,-42.75 -42.75,-42.75c-23.60869,0 -42.75,19.14131 -42.75,42.75c0,11.58169 4.62413,22.07325 12.10894,29.77181c0.04275,0.04275 27.28519,27.31013 27.28519,27.31013c1.85606,1.85606 4.86281,1.85606 6.71887,0c-0.00356,0 27.23888,-27.26737 27.27806,-27.31012z" fill="url(#color-1)"></path><circle cx="36" cy="12" transform="scale(3.5625,3.5625)" r="5.6" fill="url(#color-2)"></circle><circle cx="36" cy="12" transform="scale(3.5625,3.5625)" r="4.8" fill="#f9f9f9"></circle></g></g></svg>