<svg version="1.1" xmlns="http://www.w3.org/2000/svg" xmlns:xlink="http://www.w3.org/1999/xlink" viewBox="0 0 172 172"><defs><linearGradient x1="110.52792" y1="111.54558" x2="52.72517" y2="53.74283" gradientUnits="userSpaceOnUse" id="color-1"><stop offset="0" stop-color="#ffffff"></stop><stop offset="0.242" stop-color="#f2f2f2"></stop><stop offset="1" stop-color="#cccccc"></stop></linearGradient><linearGradient x1="58.34742" y1="59.36508" x2="99.51992" y2="100.53758" gradientUnits="userSpaceOnUse" id="color-2"><stop offset="0" stop-color="#0d61a9"></stop><stop offset="0.363" stop-color="#0e5fa4"></stop><stop offset="0.78" stop-color="#135796"></stop><stop offset="1" stop-color="#16528c"></stop></linearGradient><linearGradient x1="14.90667" y1="15.98525" x2="132.27875" y2="133.36092" gradientUnits="userSpaceOnUse" id="color-3"><stop offset="0" stop-color="#889097"></stop><stop offset="0.331" stop-color="#848c94"></stop><stop offset="0.669" stop-color="#78828b"></stop><stop offset="1" stop-color="#64717c"></stop></linearGradient><linearGradient x1="96.33792" y1="93.03767" x2="134.40725" y2="148.10992" gradientUnits="userSpaceOnUse" id="color-4"><stop offset="0" stop-color="#7dd8f3"></stop><stop offset="1" stop-color="#45b0d0"></stop></linearGradient><linearGradient x1="80.49958" y1="84.35525" x2="155.57758" y2="99.62025" gradientUnits="userSpaceOnUse" id="color-5"><stop offset="0" stop-color="#0077d2"></stop><stop offset="1" stop-color="#0b59a2"></stop></linearGradient><linearGradient x1="110.52792" y1="111.54558" x2="52.72517" y2="53.74283" gradientUnits="userSpaceOnUse" id="color-6"><stop offset="0" stop-color="#ffffff"></stop><stop offset="0.242" stop-color="#f2f2f2"></stop><stop offset="1" stop-color="#cccccc"></stop></linearGradient><linearGradient x1="58.34742" y1="59.36508" x2="99.51992" y2="100.53758" gradientUnits="userSpaceOnUse" id="color-7"><stop offset="0" stop-color="#0d61a9"></stop><stop offset="0.363" stop-color="#0e5fa4"></stop><stop offset="0.78" stop-color="#135796"></stop><stop offset="1" stop-color="#16528c"></stop></linearGradient><linearGradient x1="14.90667" y1="15.98525" x2="132.27875" y2="133.36092" gradientUnits="userSpaceOnUse" id="color-8"><stop offset="0" stop-color="#889097"></stop><stop offset="0.331" stop-color="#848c94"></stop><stop offset="0.669" stop-color="#78828b"></stop><stop offset="1" stop-color="#64717c"></stop></linearGradient><linearGradient x1="96.33792" y1="93.03767" x2="134.40725" y2="148.10992" gradientUnits="userSpaceOnUse" id="color-9"><stop offset="0" stop-color="#7dd8f3"></stop><stop offset="1" stop-color="#45b0d0"></stop></linearGradient><linearGradient x1="80.49958" y1="84.35525" x2="155.57758" y2="99.62025" gradientUnits="userSpaceOnUse" id="color-10"><stop offset="0" stop-color="#0077d2"></stop><stop offset="1" stop-color="#0b59a2"></stop></linearGradient></defs><g transform="translate(0.516,0.516) scale(0.994,0.994)"><g fill="none" fill-rule="nonzero" stroke="none" stroke-width="1" stroke-linecap="butt" stroke-linejoin="none" stroke-miterlimit="10" stroke-dasharray="" stroke-dashoffset="0" font-family="none" font-weight="none" font-size="none" text-anchor="none" style="mix-blend-mode: normal"><g stroke="#cccccc" stroke-linejoin="round"><path d="M40.60992,82.83592c0,-22.75873 18.4496,-41.20833 41.20833,-41.20833c22.75873,0 41.20833,18.4496 41.20833,41.20833c0,22.75873 -18.4496,41.20833 -41.20833,41.20833c-22.75873,0 -41.20833,-18.4496 -41.20833,-41.20833z" fill="url(#color-1)"></path><path d="M56.73492,82.83592c0,-13.85314 11.23019,-25.08333 25.08333,-25.08333c13.85314,0 25.08333,11.23019 25.08333,25.08333c0,13.85314 -11.23019,25.08333 -25.08333,25.08333c-13.85314,0 -25.08333,-11.23019 -25.08333,-25.08333z" fill="url(#color-2)"></path><path d="M153.49208,82.83592c0,4.601 -0.47658,9.08375 -1.30433,13.44467c-8.85083,-0.18275 -17.52608,4.32867 -22.26325,12.5345c-4.902,8.4925 -4.25342,18.64767 0.78833,26.31958c-7.4605,6.97675 -16.38658,12.384 -26.30167,15.67708c-4.04917,-8.41008 -12.62767,-14.22942 -22.58575,-14.22942c-9.95808,0 -18.53658,5.81933 -22.58575,14.22942c-9.91508,-3.29308 -18.84117,-8.70033 -26.30167,-15.67708c5.04175,-7.67192 5.69033,-17.82708 0.78833,-26.31958c-4.73717,-8.20583 -13.416,-12.71725 -22.26325,-12.5345c-0.82775,-4.36092 -1.30433,-8.84367 -1.30433,-13.44467c0,-5.88383 0.78833,-11.57417 2.12492,-17.04592c8.56058,-0.10392 16.84883,-4.56517 21.43908,-12.51658c4.41825,-7.654 4.32867,-16.65892 0.5805,-23.98325c7.61458,-6.76175 16.63383,-11.96475 26.62417,-15.007c4.4935,6.76175 12.17258,11.21942 20.89442,11.21942c8.72183,0 16.40092,-4.46125 20.89442,-11.21942c9.99033,3.04225 19.00958,8.24525 26.62417,15.007c-3.74817,7.32433 -3.83775,16.32925 0.5805,23.98325c4.59025,7.95142 12.8785,12.41267 21.43908,12.51658c1.33658,5.47175 2.12492,11.16208 2.13208,17.04592zM119.44325,82.83592c0,-20.77975 -16.84525,-37.625 -37.625,-37.625c-20.77975,0 -37.625,16.84525 -37.625,37.625c0,20.77975 16.84525,37.625 37.625,37.625c20.77975,0 37.625,-16.84525 37.625,-37.625z" fill="url(#color-3)"></path><path d="M78.83333,148.70833v-50.16667h78.83333v50.16667c0,3.94167 -3.225,7.16667 -7.16667,7.16667h-64.5c-3.94167,0 -7.16667,-3.225 -7.16667,-7.16667z" fill="url(#color-4)"></path><path d="M157.66667,91.375v7.16667h-78.83333v-7.16667c0,-3.94167 3.225,-7.16667 7.16667,-7.16667h64.5c3.94167,0 7.16667,3.225 7.16667,7.16667z" fill="url(#color-5)"></path><path d="M97.27317,146.3935l-7.16667,-7.16667c-0.69875,-0.69875 -0.69875,-1.83467 0,-2.53342l2.53342,-2.53342c0.69875,-0.69875 1.83467,-0.69875 2.53342,0l3.36475,3.36475l10.53142,-10.53142c0.69875,-0.69875 1.83467,-0.69875 2.53342,0l2.53342,2.53342c0.69875,0.69875 0.69875,1.83467 0,2.53342l-14.33333,14.33333c-0.69517,0.69875 -1.8275,0.69875 -2.52983,0z" fill="#195bbc"></path><path d="M97.27317,124.8935l-7.16667,-7.16667c-0.69875,-0.69875 -0.69875,-1.83467 0,-2.53342l2.53342,-2.53342c0.69875,-0.69875 1.83467,-0.69875 2.53342,0l3.36475,3.36475l10.53142,-10.53142c0.69875,-0.69875 1.83467,-0.69875 2.53342,0l2.53342,2.53342c0.69875,0.69875 0.69875,1.83467 0,2.53342l-14.33333,14.33333c-0.69517,0.69875 -1.8275,0.69875 -2.52983,0z" fill="#195bbc"></path></g><path d="M0,172v-172h172v172z" fill="none" stroke="none" stroke-linejoin="miter"></path><g stroke="none" stroke-linejoin="miter"><circle cx="22.833" cy="23.117" transform="scale(3.58333,3.58333)" r="11.5" fill="url(#color-6)"></circle><circle cx="22.833" cy="23.117" transform="scale(3.58333,3.58333)" r="7" fill="url(#color-7)"></circle><path d="M151.36,65.79c-8.56058,-0.10392 -16.84883,-4.56517 -21.43908,-12.51658c-4.41825,-7.654 -4.32867,-16.65892 -0.5805,-23.98325c-7.61458,-6.76175 -16.63383,-11.96475 -26.62417,-15.007c-4.4935,6.75817 -12.17258,11.21942 -20.89442,11.21942c-8.72183,0 -16.40092,-4.45767 -20.89442,-11.21942c-9.99033,3.04225 -19.00958,8.24525 -26.62417,15.007c3.74817,7.32433 3.83775,16.32925 -0.5805,23.98325c-4.59025,7.95142 -12.8785,12.41267 -21.43908,12.51658c-1.33658,5.47175 -2.12492,11.16208 -2.12492,17.04592c0,4.601 0.47658,9.08375 1.30433,13.44467c8.84725,-0.18275 17.52608,4.32867 22.26325,12.5345c4.902,8.4925 4.25342,18.64767 -0.78833,26.31958c7.4605,6.97675 16.38658,12.384 26.30167,15.67708c4.04917,-8.41008 12.62767,-14.22942 22.58575,-14.22942c9.95808,0 18.53658,5.81933 22.58575,14.22942c9.91508,-3.29308 18.84117,-8.70033 26.30167,-15.67708c-5.04175,-7.67192 -5.69033,-17.82708 -0.78833,-26.31958c4.73717,-8.20583 13.41242,-12.71725 22.26325,-12.5345c0.82775,-4.36092 1.30433,-8.84367 1.30433,-13.44467c-0.00717,-5.88383 -0.7955,-11.57417 -2.13208,-17.04592zM81.81825,120.46092c-20.77975,0 -37.625,-16.84525 -37.625,-37.625c0,-20.77975 16.84525,-37.625 37.625,-37.625c20.77975,0 37.625,16.84525 37.625,37.625c0,20.77975 -16.84525,37.625 -37.625,37.625z" fill="url(#color-8)"></path><path d="M78.83333,148.70833v-50.16667h78.83333v50.16667c0,3.94167 -3.225,7.16667 -7.16667,7.16667h-64.5c-3.94167,0 -7.16667,-3.225 -7.16667,-7.16667z" fill="url(#color-9)"></path><path d="M157.66667,91.375v7.16667h-78.83333v-7.16667c0,-3.94167 3.225,-7.16667 7.16667,-7.16667h64.5c3.94167,0 7.16667,3.225 7.16667,7.16667z" fill="url(#color-10)"></path><path d="M97.27317,146.3935l-7.16667,-7.16667c-0.69875,-0.69875 -0.69875,-1.83467 0,-2.53342l2.53342,-2.53342c0.69875,-0.69875 1.83467,-0.69875 2.53342,0l3.36475,3.36475l10.53142,-10.53142c0.69875,-0.69875 1.83467,-0.69875 2.53342,0l2.53342,2.53342c0.69875,0.69875 0.69875,1.83467 0,2.53342l-14.33333,14.33333c-0.69517,0.69875 -1.8275,0.69875 -2.52983,0z" fill="#195bbc"></path><path d="M97.27317,124.8935l-7.16667,-7.16667c-0.69875,-0.69875 -0.69875,-1.83467 0,-2.53342l2.53342,-2.53342c0.69875,-0.69875 1.83467,-0.69875 2.53342,0l3.36475,3.36475l10.53142,-10.53142c0.69875,-0.69875 1.83467,-0.69875 2.53342,0l2.53342,2.53342c0.69875,0.69875 0.69875,1.83467 0,2.53342l-14.33333,14.33333c-0.69517,0.69875 -1.8275,0.69875 -2.52983,0z" fill="#195bbc"></path></g><path d="" fill="none" stroke="none" stroke-linejoin="miter"></path></g></g></svg>