<svg version="1.1" xmlns="http://www.w3.org/2000/svg" xmlns:xlink="http://www.w3.org/1999/xlink" viewBox="0 0 171 171"><defs><linearGradient x1="52.67513" y1="111.10369" x2="117.83325" y2="176.26181" gradientUnits="userSpaceOnUse" id="color-1"><stop offset="0" stop-color="#0d61a9"></stop><stop offset="1" stop-color="#16528c"></stop></linearGradient><linearGradient x1="117.26681" y1="71.25" x2="122.01919" y2="71.25" gradientUnits="userSpaceOnUse" id="color-2"><stop offset="0" stop-color="#c48f0c"></stop><stop offset="0.251" stop-color="#d19b16"></stop><stop offset="0.619" stop-color="#dca51f"></stop><stop offset="1" stop-color="#e0a922"></stop></linearGradient><linearGradient x1="53.73319" y1="71.25" x2="48.98081" y2="71.25" gradientUnits="userSpaceOnUse" id="color-3"><stop offset="0" stop-color="#c48f0c"></stop><stop offset="0.251" stop-color="#d19b16"></stop><stop offset="0.619" stop-color="#dca51f"></stop><stop offset="1" stop-color="#e0a922"></stop></linearGradient><radialGradient cx="85.49935" cy="66.61961" r="38.39192" gradientUnits="userSpaceOnUse" id="color-4"><stop offset="0" stop-color="#ffcf54"></stop><stop offset="0.261" stop-color="#fdcb4d"></stop><stop offset="0.639" stop-color="#f7c13a"></stop><stop offset="1" stop-color="#f0b421"></stop></radialGradient><radialGradient cx="55.02514" cy="23.73963" r="90.81334" gradientUnits="userSpaceOnUse" id="color-5"><stop offset="0" stop-color="#c26715"></stop><stop offset="0.508" stop-color="#b85515"></stop><stop offset="1" stop-color="#ad3f16"></stop></radialGradient><radialGradient cx="80.38892" cy="29.82002" r="100.31235" gradientUnits="userSpaceOnUse" id="color-6"><stop offset="0" stop-color="#c26715"></stop><stop offset="0.508" stop-color="#b85515"></stop><stop offset="1" stop-color="#ad3f16"></stop></radialGradient><linearGradient x1="111.11081" y1="111.11081" x2="161.83013" y2="161.83012" gradientUnits="userSpaceOnUse" id="color-7"><stop offset="0" stop-color="#889097"></stop><stop offset="0.331" stop-color="#848c94"></stop><stop offset="0.669" stop-color="#78828b"></stop><stop offset="1" stop-color="#64717c"></stop></linearGradient><linearGradient x1="148.7415" y1="148.7415" x2="121.83394" y2="121.83394" gradientUnits="userSpaceOnUse" id="color-8"><stop offset="0" stop-color="#ffffff"></stop><stop offset="0.242" stop-color="#f2f2f2"></stop><stop offset="1" stop-color="#cccccc"></stop></linearGradient><linearGradient x1="124.44881" y1="124.44881" x2="143.61506" y2="143.61506" gradientUnits="userSpaceOnUse" id="color-9"><stop offset="0" stop-color="#0d61a9"></stop><stop offset="0.363" stop-color="#0e5fa4"></stop><stop offset="0.78" stop-color="#135796"></stop><stop offset="1" stop-color="#16528c"></stop></linearGradient><linearGradient x1="111.11081" y1="111.11081" x2="161.83013" y2="161.83012" gradientUnits="userSpaceOnUse" id="color-10"><stop offset="0" stop-color="#889097"></stop><stop offset="0.331" stop-color="#848c94"></stop><stop offset="0.669" stop-color="#78828b"></stop><stop offset="1" stop-color="#64717c"></stop></linearGradient><linearGradient x1="147.78675" y1="147.78675" x2="122.79938" y2="122.79937" gradientUnits="userSpaceOnUse" id="color-11"><stop offset="0" stop-color="#ffffff"></stop><stop offset="0.242" stop-color="#f2f2f2"></stop><stop offset="1" stop-color="#cccccc"></stop></linearGradient><linearGradient x1="125.37506" y1="125.37506" x2="142.91681" y2="142.91681" gradientUnits="userSpaceOnUse" id="color-12"><stop offset="0" stop-color="#0d61a9"></stop><stop offset="0.363" stop-color="#0e5fa4"></stop><stop offset="0.78" stop-color="#135796"></stop><stop offset="1" stop-color="#16528c"></stop></linearGradient></defs><g fill="none" fill-rule="nonzero" stroke="none" stroke-width="1" stroke-linecap="butt" stroke-linejoin="miter" stroke-miterlimit="10" stroke-dasharray="" stroke-dashoffset="0" font-family="none" font-weight="none" font-size="none" text-anchor="none" style="mix-blend-mode: normal"><path d="M0,171.99654v-171.99654h171.99654v171.99654z" fill="none"></path><g><path d="M85.5,108.90919c-31.48181,0 -57,17.53106 -57,36.64388v4.07194c0,3.93656 3.18844,7.125 7.125,7.125h99.75c3.93656,0 7.125,-3.18844 7.125,-7.125v-4.07194c0,-19.11281 -25.51819,-36.64388 -57,-36.64388z" fill="url(#color-1)"></path><path d="M103.3125,107.15644c0,28.1865 -17.8125,42.46856 -17.8125,42.46856c0,0 -17.8125,-14.28206 -17.8125,-42.46856c0,-9.39431 0,-14.53144 0,-14.53144h35.625c0,0 0,5.13712 0,14.53144z" fill="#ffffff"></path><path d="M103.3125,107.15644c0,28.1865 -17.8125,42.46856 -17.8125,42.46856c0,0 -17.8125,-14.28206 -17.8125,-42.46856c0,-9.39431 0,-14.53144 0,-14.53144h35.625c0,0 0,5.13712 0,14.53144z" fill="#ffffff"></path><path d="M103.3125,106.875c0,6.75806 -17.8125,14.25 -17.8125,14.25c0,0 -17.8125,-7.49194 -17.8125,-14.25c0,-9.39431 0,-25.06219 0,-25.06219h35.625c0,0 0,15.66788 0,25.06219z" fill="#d6a121"></path><path d="M78.375,124.6875l3.5625,3.5625l-2.78231,14.41744c3.4485,4.60275 6.34481,6.95756 6.34481,6.95756c0,0 2.89631,-2.35481 6.34481,-6.95756l-2.78231,-14.41744l3.5625,-3.5625l-7.125,-3.5625z" fill="#d32f2f"></path><path d="M117.26325,64.125h-1.87744v14.25h2.50444c1.83469,0 3.39863,-1.1115 3.70856,-2.63625l1.2255,-6.06694c0.58781,-2.89988 -2.06625,-5.54681 -5.56106,-5.54681z" fill="url(#color-2)"></path><path d="M53.73675,64.125h1.87744v14.25h-2.50444c-1.83469,0 -3.39863,-1.1115 -3.70856,-2.63625l-1.2255,-6.06694c-0.58781,-2.89988 2.06625,-5.54681 5.56106,-5.54681z" fill="url(#color-3)"></path><path d="M85.5,22.8c-15.82106,0 -32.0625,2.40469 -32.0625,36.60469c0,2.736 0,20.93681 0,23.86162c0,12.20869 19.2375,27.17119 32.0625,27.17119c12.825,0 32.0625,-14.9625 32.0625,-27.17119c0,-2.92481 0,-21.12206 0,-23.86162c0,-34.2 -16.24144,-36.60469 -32.0625,-36.60469z" fill="url(#color-4)"></path><path d="M85.5,19.75406c-15.51112,0 -17.8125,5.82825 -17.8125,5.82825c-6.30562,0.92981 -17.8125,10.16738 -17.8125,20.72662c0,5.89237 0.94406,10.24575 3.5625,24.9375c1.94156,-23.31656 8.01206,-32.0625 14.25,-32.0625c4.51369,0 8.09756,3.5625 17.8125,3.5625c8.20444,0 10.24219,-3.5625 17.8125,-3.5625c10.6875,0 14.25,28.386 14.25,32.0625c2.14106,-10.72313 3.5625,-19.78969 3.5625,-24.9375c0,-12.21581 -13.50544,-26.55487 -35.625,-26.55487z" fill="url(#color-5)"></path><path d="M86.28019,17.8125c-14.83425,0 -18.582,7.77338 -18.582,7.77338c-0.14963,4.12894 1.85962,7.77338 1.85962,7.77338c0,0 2.7075,5.82825 18.16875,5.82825c9.33375,0 22.71094,-5.82469 22.71094,-21.375c0,0 -3.00319,0 -24.15731,0z" fill="url(#color-6)"></path><path d="M169.98469,127.06725c-4.2465,0.5415 -8.60344,-1.44994 -10.87987,-5.39363c-2.27287,-3.94013 -1.824,-8.70675 0.76594,-12.11606c-4.02206,-3.819 -8.92406,-6.71531 -14.38537,-8.32913c-1.653,3.95794 -5.5575,6.74025 -10.11394,6.74025c-4.55644,0 -8.46094,-2.78588 -10.11394,-6.74025c-5.46131,1.61737 -10.35975,4.50656 -14.38537,8.32913c2.58994,3.40931 3.04237,8.17594 0.76594,12.11606c-2.27287,3.94013 -6.62981,5.93156 -10.87987,5.39363c-0.63413,2.66831 -1.00819,5.43994 -1.00819,8.30775c0,2.86781 0.37406,5.63944 1.01531,8.30775c4.2465,-0.5415 8.60344,1.4535 10.87987,5.39363c2.27288,3.94012 1.824,8.70675 -0.76594,12.11606c4.02206,3.819 8.92406,6.71531 14.38537,8.32913c1.653,-3.95794 5.5575,-6.74025 10.11394,-6.74025c4.55644,0 8.46094,2.78588 10.11394,6.74025c5.46131,-1.61738 10.35975,-4.50656 14.38538,-8.32913c-2.58994,-3.40931 -3.04594,-8.17594 -0.76594,-12.11606c2.27287,-3.94012 6.62981,-5.93156 10.87988,-5.39363c0.63413,-2.66831 1.00819,-5.43994 1.00819,-8.30775c0,-2.86781 -0.37406,-5.63944 -1.01531,-8.30775z" fill="url(#color-7)"></path><circle cx="38" cy="38" transform="scale(3.5625,3.5625)" r="5.385" fill="url(#color-8)"></circle><circle cx="38" cy="38" transform="scale(3.5625,3.5625)" r="3.278" fill="url(#color-9)"></circle><path d="M169.98469,127.06725c-4.2465,0.5415 -8.60344,-1.44994 -10.87987,-5.39363c-2.27287,-3.94013 -1.824,-8.70675 0.76594,-12.11606c-4.02206,-3.819 -8.92406,-6.71531 -14.38537,-8.32913c-1.653,3.95794 -5.5575,6.74025 -10.11394,6.74025c-4.55644,0 -8.46094,-2.78588 -10.11394,-6.74025c-5.46131,1.61737 -10.35975,4.50656 -14.38537,8.32913c2.58994,3.40931 3.04237,8.17594 0.76594,12.11606c-2.27287,3.94013 -6.62981,5.93156 -10.87987,5.39363c-0.63413,2.66831 -1.00819,5.43994 -1.00819,8.30775c0,2.86781 0.37406,5.63944 1.01531,8.30775c4.2465,-0.5415 8.60344,1.4535 10.87987,5.39363c2.27288,3.94012 1.824,8.70675 -0.76594,12.11606c4.02206,3.819 8.92406,6.71531 14.38537,8.32913c1.653,-3.95794 5.5575,-6.74025 10.11394,-6.74025c4.55644,0 8.46094,2.78588 10.11394,6.74025c5.46131,-1.61738 10.35975,-4.50656 14.38538,-8.32913c-2.58994,-3.40931 -3.04594,-8.17594 -0.76594,-12.11606c2.27287,-3.94012 6.62981,-5.93156 10.87988,-5.39363c0.63413,-2.66831 1.00819,-5.43994 1.00819,-8.30775c0,-2.86781 -0.37406,-5.63944 -1.01531,-8.30775z" fill="url(#color-10)"></path><circle cx="38" cy="38" transform="scale(3.5625,3.5625)" r="5" fill="url(#color-11)"></circle><circle cx="38" cy="38" transform="scale(3.5625,3.5625)" r="3" fill="url(#color-12)"></circle></g></g></svg>