<svg version="1.1" xmlns="http://www.w3.org/2000/svg" xmlns:xlink="http://www.w3.org/1999/xlink" viewBox="0 0 171 171"><defs><linearGradient x1="90.1455" y1="41.82375" x2="173.30138" y2="127.44488" gradientUnits="userSpaceOnUse" id="color-1"><stop offset="0" stop-color="#eba600"></stop><stop offset="1" stop-color="#c28200"></stop></linearGradient><linearGradient x1="11.36081" y1="27.2175" x2="120.71888" y2="139.82456" gradientUnits="userSpaceOnUse" id="color-2"><stop offset="0" stop-color="#ffd869"></stop><stop offset="1" stop-color="#fec52b"></stop></linearGradient><linearGradient x1="61.11113" y1="41.82375" x2="61.11113" y2="-71.14669" gradientUnits="userSpaceOnUse" id="color-3"><stop offset="0" stop-color="#eba600"></stop><stop offset="1" stop-color="#c28200"></stop></linearGradient><linearGradient x1="141.95137" y1="41.78456" x2="141.95137" y2="26.97525" gradientUnits="userSpaceOnUse" id="color-4"><stop offset="0" stop-color="#ffd869"></stop><stop offset="1" stop-color="#fec52b"></stop></linearGradient><linearGradient x1="111.11081" y1="112.58925" x2="161.83013" y2="163.30856" gradientUnits="userSpaceOnUse" id="color-5"><stop offset="0" stop-color="#889097"></stop><stop offset="0.331" stop-color="#848c94"></stop><stop offset="0.669" stop-color="#78828b"></stop><stop offset="1" stop-color="#64717c"></stop></linearGradient><linearGradient x1="147.78675" y1="149.26519" x2="122.79938" y2="124.27781" gradientUnits="userSpaceOnUse" id="color-6"><stop offset="0" stop-color="#ffffff"></stop><stop offset="0.242" stop-color="#f2f2f2"></stop><stop offset="1" stop-color="#cccccc"></stop></linearGradient><linearGradient x1="125.37506" y1="126.8535" x2="142.91681" y2="144.39525" gradientUnits="userSpaceOnUse" id="color-7"><stop offset="0" stop-color="#0d61a9"></stop><stop offset="0.363" stop-color="#0e5fa4"></stop><stop offset="0.78" stop-color="#135796"></stop><stop offset="1" stop-color="#16528c"></stop></linearGradient></defs><g fill="none" fill-rule="nonzero" stroke="none" stroke-width="1" stroke-linecap="butt" stroke-linejoin="miter" stroke-miterlimit="10" stroke-dasharray="" stroke-dashoffset="0" font-family="none" font-weight="none" font-size="none" text-anchor="none" style="mix-blend-mode: normal"><path d="M0,171.99654v-171.99654h171.99654v171.99654z" fill="none"></path><g><path d="M149.625,149.625h-39.1875v-128.25h42.75c1.9665,0 3.5625,1.596 3.5625,3.5625v117.5625c0,3.93656 -3.18844,7.125 -7.125,7.125z" fill="url(#color-1)"></path><path d="M110.4375,149.625h-89.0625c-3.93656,0 -7.125,-3.18844 -7.125,-7.125v-117.5625c0,-1.9665 1.596,-3.5625 3.5625,-3.5625h99.75v121.125c0,3.93656 -3.18844,7.125 -7.125,7.125z" fill="url(#color-2)"></path><path d="M117.5625,21.375h-101.11087c-1.35019,0 -2.58281,0.76238 -3.18487,1.97006l-8.41463,16.82925c-0.59138,1.18275 0.26719,2.57569 1.59244,2.57569h98.22881c1.35019,0 2.58281,-0.76237 3.18487,-1.97006z" fill="url(#color-3)"></path><path d="M117.5625,21.375h36.98587c1.35019,0 2.58281,0.76238 3.18488,1.97006l8.41463,16.82925c0.59137,1.18275 -0.26719,2.57569 -1.59244,2.57569h-34.10381c-1.35019,0 -2.58281,-0.76237 -3.18487,-1.97006z" fill="url(#color-4)"></path><path d="M156.75,142.5v-38.37169c-3.18488,-2.08762 -6.62625,-3.762 -10.25644,-4.83431l-3.06375,-0.90488l-1.23262,2.94975c-1.15425,2.76094 -3.83325,4.54575 -6.82575,4.54575c-2.9925,0 -5.6715,-1.78481 -6.82575,-4.54575l-1.23262,-2.94975l-3.06731,0.90488c-5.87812,1.74206 -11.35369,4.91269 -15.82463,9.16275l-2.31206,2.19806l1.93088,2.54006c1.80975,2.37975 2.00925,5.58956 0.51656,8.1795c-1.31456,2.28356 -3.77269,3.69787 -6.41606,3.69787c-0.30994,0 -0.61987,-0.02137 -0.92625,-0.06056l-3.17419,-0.40256l-0.741,3.11006c-0.741,3.08156 -1.1115,6.15244 -1.1115,9.13425c0,2.98894 0.37406,6.06338 1.11506,9.14138l0.74456,3.10294l3.16706,-0.40256c0.30994,-0.03919 0.61987,-0.06056 0.92981,-0.06056c1.31456,0 2.58281,0.35269 3.69075,0.98681h4.60275h39.1875c3.93656,0.00356 7.125,-3.18488 7.125,-7.12144z" fill="#000000" opacity="0.05"></path><path d="M156.75,142.5v-36.24487c-3.29888,-2.3085 -6.9255,-4.12538 -10.76231,-5.25825l-1.53187,-0.45244l-0.61631,1.47487c-1.43212,3.42713 -4.75594,5.643 -8.46806,5.643c-3.71213,0 -7.0395,-2.21587 -8.46806,-5.643l-0.61631,-1.47487l-1.53544,0.45244c-5.60737,1.66369 -10.83356,4.68469 -15.105,8.74594l-1.15781,1.10081l0.96544,1.26825c2.24438,2.95331 2.49731,6.93619 0.64125,10.14956c-1.63162,2.83219 -4.68112,4.5885 -7.95862,4.5885c-0.38475,0 -0.7695,-0.02494 -1.15069,-0.07481l-1.58531,-0.20306l-0.3705,1.55681c-0.70537,2.95331 -1.06162,5.88525 -1.06162,8.72456c0,2.85 0.35981,5.7855 1.06519,8.72456l0.37406,1.55325l1.58531,-0.20306c0.38475,-0.04988 0.7695,-0.07481 1.15425,-0.07481c2.49375,0 4.84856,1.02956 6.555,2.76806h1.73494h39.1875c3.93656,0.00356 7.125,-3.18488 7.125,-7.12144z" fill="#000000" opacity="0.07"></path><path d="M169.98469,128.54569c-4.2465,0.5415 -8.60344,-1.44994 -10.87987,-5.39362c-2.27287,-3.94013 -1.824,-8.70675 0.76594,-12.11606c-4.02206,-3.819 -8.92406,-6.71531 -14.38537,-8.32913c-1.653,3.95794 -5.5575,6.74025 -10.11394,6.74025c-4.55644,0 -8.46094,-2.78588 -10.11394,-6.74025c-5.46131,1.61737 -10.35975,4.50656 -14.38537,8.32913c2.58994,3.40931 3.04237,8.17594 0.76594,12.11606c-2.27287,3.94013 -6.62981,5.93156 -10.87987,5.39363c-0.63413,2.66831 -1.00819,5.43994 -1.00819,8.30775c0,2.86781 0.37406,5.63944 1.01531,8.30775c4.2465,-0.5415 8.60344,1.4535 10.87987,5.39362c2.27288,3.94013 1.824,8.70675 -0.76594,12.11606c4.02206,3.819 8.92406,6.71531 14.38537,8.32913c1.653,-3.95794 5.5575,-6.74025 10.11394,-6.74025c4.55644,0 8.46094,2.78587 10.11394,6.74025c5.46131,-1.61738 10.35975,-4.50656 14.38537,-8.32913c-2.58994,-3.40931 -3.04594,-8.17594 -0.76594,-12.11606c2.27287,-3.94013 6.62981,-5.93156 10.87988,-5.39363c0.63413,-2.66831 1.00819,-5.43994 1.00819,-8.30775c0,-2.86781 -0.37406,-5.63944 -1.01531,-8.30775z" fill="url(#color-5)"></path><circle cx="38" cy="38.415" transform="scale(3.5625,3.5625)" r="5" fill="url(#color-6)"></circle><circle cx="38" cy="38.415" transform="scale(3.5625,3.5625)" r="3" fill="url(#color-7)"></circle></g></g></svg>