<svg version="1.1" xmlns="http://www.w3.org/2000/svg" xmlns:xlink="http://www.w3.org/1999/xlink" viewBox="0 0 171 171"><defs><linearGradient x1="85.5" y1="18.24356" x2="85.5" y2="146.20144" gradientUnits="userSpaceOnUse" id="color-1"><stop offset="0" stop-color="#f44f5a"></stop><stop offset="0.443" stop-color="#ee3d4a"></stop><stop offset="1" stop-color="#e52030"></stop></linearGradient></defs><g fill="none" fill-rule="nonzero" stroke="none" stroke-width="1" stroke-linecap="butt" stroke-linejoin="miter" stroke-miterlimit="10" stroke-dasharray="" stroke-dashoffset="0" font-family="none" font-weight="none" font-size="none" text-anchor="none" style="mix-blend-mode: normal"><path d="M0,171.99654v-171.99654h171.99654v171.99654z" fill="none"></path><g><path d="M150.84338,48.80269l-58.97006,-29.48681c-4.01138,-2.00569 -8.73525,-2.00569 -12.74663,0l-58.97006,29.48681c-3.6195,1.80975 -5.90663,5.51119 -5.90663,9.55819v78.89513v1.6815c0,3.93656 3.18844,7.125 7.125,7.125h128.25c3.93656,0 7.125,-3.18844 7.125,-7.125v-1.6815v-78.89512c0,-4.047 -2.28713,-7.74844 -5.90662,-9.55819z" fill="url(#color-1)"></path><path d="M117.5625,78.375h-21.375v-21.375c0,-3.93656 -3.18844,-7.125 -7.125,-7.125h-7.125c-3.93656,0 -7.125,3.18844 -7.125,7.125v21.375h-21.375c-3.93656,0 -7.125,3.18844 -7.125,7.125v7.125c0,3.93656 3.18844,7.125 7.125,7.125h21.375v21.375c0,3.93656 3.18844,7.125 7.125,7.125h7.125c3.93656,0 7.125,-3.18844 7.125,-7.125v-21.375h21.375c3.93656,0 7.125,-3.18844 7.125,-7.125v-7.125c0,-3.93656 -3.18844,-7.125 -7.125,-7.125z" fill="#000000" opacity="0.05"></path><path d="M117.5625,80.15625h-23.15625v-23.15625c0,-2.94975 -2.394,-5.34375 -5.34375,-5.34375h-7.125c-2.94975,0 -5.34375,2.394 -5.34375,5.34375v23.15625h-23.15625c-2.94975,0 -5.34375,2.394 -5.34375,5.34375v7.125c0,2.94975 2.394,5.34375 5.34375,5.34375h23.15625v23.15625c0,2.94975 2.394,5.34375 5.34375,5.34375h7.125c2.94975,0 5.34375,-2.394 5.34375,-5.34375v-23.15625h23.15625c2.94975,0 5.34375,-2.394 5.34375,-5.34375v-7.125c0,-2.94975 -2.394,-5.34375 -5.34375,-5.34375z" fill="#000000" opacity="0.07"></path><path d="M81.9375,53.4375h7.125c1.9665,0 3.5625,1.596 3.5625,3.5625v64.125c0,1.9665 -1.596,3.5625 -3.5625,3.5625h-7.125c-1.9665,0 -3.5625,-1.596 -3.5625,-3.5625v-64.125c0,-1.9665 1.596,-3.5625 3.5625,-3.5625z" fill="#ffffff"></path><path d="M121.125,85.5v7.125c0,1.9665 -1.596,3.5625 -3.5625,3.5625h-64.125c-1.9665,0 -3.5625,-1.596 -3.5625,-3.5625v-7.125c0,-1.9665 1.596,-3.5625 3.5625,-3.5625h64.125c1.9665,0 3.5625,1.596 3.5625,3.5625z" fill="#ffffff"></path></g></g></svg>