<svg xmlns="http://www.w3.org/2000/svg" viewBox="0 0 412.64 447.64"><title>questionRecurso 11024px</title><path d="M60.43,415.8c80.57,42.46,211.21,42.46,291.78,0s80.57-111.32,0-153.78S141,219.55,60.43,262-20.14,373.33,60.43,415.8Z" style="fill:#f5f5f5"/><path d="M25.89,362.67l3.74,2.14a4.82,4.82,0,0,0,4.33,0L206.77,265a1.32,1.32,0,0,0,0-2.5l-3.72-2.12a4.82,4.82,0,0,0-4.33,0L25.88,360.18A1.31,1.31,0,0,0,25.89,362.67Z" style="fill:#e0e0e0"/><ellipse cx="275.38" cy="369.7" rx="52.74" ry="28.91" style="fill:#e0e0e0"/><ellipse cx="336.31" cy="297.63" rx="40.69" ry="22.31" style="fill:#e0e0e0"/><path d="M356.2,275.22c-.06-5.11,3.51-15.74,8.73-22.44s13.5-11.64,19.44-9.69c5.54,1.82,5,9.06-1.6,13.94s-16.62,11-19.46,19.34l-6.05,10.24Z" style="fill:#27debf"/><path d="M356.2,275.22c-.06-5.11,3.51-15.74,8.73-22.44s13.5-11.64,19.44-9.69c5.54,1.82,5,9.06-1.6,13.94s-16.62,11-19.46,19.34l-6.05,10.24Z" style="fill:#36b2bf"/><path d="M355.91,282.21a.37.37,0,0,0,.33-.3c3.21-17.48,17.15-31.83,25.56-35.06a.38.38,0,0,0-.27-.7c-8.57,3.3-22.76,17.88-26,35.62a.38.38,0,0,0,.3.44Z" style="fill:#fff"/><path d="M358.65,293.34c.78-2.88,4.23-7.66,9.86-11.64,6.22-4.41,14.14-6.5,15.93-9.89,2.15-4.07-1.31-7.86-7.74-7S359,274.64,357.38,287.9Z" style="fill:#47cbea"/><path d="M357.36,290.34a.36.36,0,0,0,.32-.25c5.17-15,16.5-20.38,21.78-21.13a.37.37,0,0,0,.31-.42.37.37,0,0,0-.42-.32c-5.83.83-17.1,6.32-22.38,21.63a.37.37,0,0,0,.24.47A.26.26,0,0,0,357.36,290.34Z" style="fill:#fff"/><path d="M30.55,360.15l-.76-.44a4.83,4.83,0,0,1-2.2-3.8V99.65a4.83,4.83,0,0,1,2.2-3.8L194.9.53a4.81,4.81,0,0,1,4.4,0l.76.43a4.88,4.88,0,0,1,2.2,3.81V261a4.86,4.86,0,0,1-2.2,3.8L34.94,360.15A4.85,4.85,0,0,1,30.55,360.15Z" style="fill:#47cbea"/><path d="M202.24,4.42c-.15-1.14-1.07-1.56-2.18-.92L34.94,98.83a4.54,4.54,0,0,0-1.56,1.63l-5.14-3a4.38,4.38,0,0,1,1.55-1.64L194.9.53a4.81,4.81,0,0,1,4.4,0l.76.43A4.93,4.93,0,0,1,202.24,4.42Z" style="fill:#fff;opacity:0.4"/><path d="M34.57,360.33a4.89,4.89,0,0,1-4-.18l-.77-.43a4.88,4.88,0,0,1-2.19-3.81V99.66a4.44,4.44,0,0,1,.65-2.17l5.14,3a4.63,4.63,0,0,0-.64,2.17V358.89C32.74,360.14,33.53,360.73,34.57,360.33Z" style="opacity:0.1"/><path d="M52.21,267.48l-.76-.44a4.87,4.87,0,0,1-2.19-3.81V217.17a4.85,4.85,0,0,1,2.2-3.81l149.9-86.62a4.81,4.81,0,0,1,4.4,0l.76.43a4.88,4.88,0,0,1,2.2,3.81V177a4.88,4.88,0,0,1-2.2,3.81L56.61,267.48A4.87,4.87,0,0,1,52.21,267.48Z" style="fill:#ebebeb"/><path d="M208.69,130.63c-.15-1.14-1.07-1.56-2.17-.92L56.61,216.34A4.65,4.65,0,0,0,55.05,218l-5.14-3a4.49,4.49,0,0,1,1.55-1.65l149.9-86.62a4.81,4.81,0,0,1,4.4,0l.76.43A4.92,4.92,0,0,1,208.69,130.63Z" style="fill:#fafafa"/><path d="M56.24,267.65a4.89,4.89,0,0,1-4-.17l-.77-.44a4.87,4.87,0,0,1-2.19-3.81V217.17a4.33,4.33,0,0,1,.65-2.16l5.14,3a4.59,4.59,0,0,0-.64,2.16v46.07C54.41,267.46,55.2,268.05,56.24,267.65Z" style="fill:#e0e0e0"/><path d="M77.81,213.25c8.55-4.93,15.48-1.09,15.48,8.58s-6.94,21.44-15.5,26.28-15.5,1-15.49-8.59S69.26,218.19,77.81,213.25Z" style="fill:#47cbea"/><path d="M52.21,329.89l-.76-.43a4.88,4.88,0,0,1-2.19-3.81V279.59a4.85,4.85,0,0,1,2.2-3.81l149.9-86.63a4.87,4.87,0,0,1,4.4,0l.76.44a4.88,4.88,0,0,1,2.2,3.81v46.06a4.86,4.86,0,0,1-2.2,3.8L56.61,329.89A4.87,4.87,0,0,1,52.21,329.89Z" style="fill:#ebebeb"/><path d="M208.69,193.05c-.15-1.14-1.07-1.56-2.17-.93L56.61,278.76a4.65,4.65,0,0,0-1.56,1.64l-5.14-3a4.49,4.49,0,0,1,1.55-1.65l149.9-86.63a4.87,4.87,0,0,1,4.4,0l.76.44A4.92,4.92,0,0,1,208.69,193.05Z" style="fill:#fafafa"/><path d="M56.24,330.07a4.89,4.89,0,0,1-4-.18l-.77-.43a4.88,4.88,0,0,1-2.19-3.81V279.59a4.33,4.33,0,0,1,.65-2.16l5.14,3a4.59,4.59,0,0,0-.64,2.16v46.07C54.41,329.88,55.2,330.47,56.24,330.07Z" style="fill:#e0e0e0"/><path d="M77.81,275.67c8.55-4.94,15.48-1.1,15.48,8.58s-6.94,21.44-15.5,26.28-15.5,1-15.49-8.59S69.26,280.61,77.81,275.67Z" style="fill:#47cbea"/><path d="M52.21,163.09l-.76-.44a4.85,4.85,0,0,1-2.19-3.81v-46a4.84,4.84,0,0,1,2.2-3.81l149.9-86.63a4.87,4.87,0,0,1,4.4,0l.76.44a4.86,4.86,0,0,1,2.2,3.81V72.65a4.86,4.86,0,0,1-2.2,3.81L56.61,163.09A4.87,4.87,0,0,1,52.21,163.09Z" style="fill:#ebebeb"/><path d="M208.69,26.24c-.15-1.14-1.07-1.55-2.17-.92L56.61,112a4.7,4.7,0,0,0-1.56,1.63l-5.14-3A4.46,4.46,0,0,1,51.46,109l149.9-86.63a4.87,4.87,0,0,1,4.4,0l.76.44A4.9,4.9,0,0,1,208.69,26.24Z" style="fill:#fafafa"/><path d="M56.24,163.26a4.89,4.89,0,0,1-4-.17l-.77-.44a4.85,4.85,0,0,1-2.19-3.81v-46a4.36,4.36,0,0,1,.65-2.17l5.14,3a4.63,4.63,0,0,0-.64,2.17v46.06C54.41,163.08,55.2,163.67,56.24,163.26Z" style="fill:#e0e0e0"/><path d="M77.81,108.87c8.55-4.94,15.48-1.1,15.48,8.58s-6.94,21.43-15.5,26.27-15.5,1-15.49-8.58S69.26,113.8,77.81,108.87Z" style="fill:#47cbea"/><path d="M62.75,221.57l-.76-.44a4.88,4.88,0,0,1-2.2-3.81V171.26a4.86,4.86,0,0,1,2.2-3.8L211.9,80.83a4.87,4.87,0,0,1,4.4,0l.75.44a4.83,4.83,0,0,1,2.2,3.8v46.06a4.85,4.85,0,0,1-2.2,3.81L67.15,221.57A4.87,4.87,0,0,1,62.75,221.57Z" style="fill:#37474f"/><path d="M219.23,84.72c-.15-1.14-1.07-1.55-2.18-.92L67.14,170.44a4.43,4.43,0,0,0-1.55,1.63l-5.15-3A4.41,4.41,0,0,1,62,167.46L211.9,80.83a4.87,4.87,0,0,1,4.4,0l.75.44A4.91,4.91,0,0,1,219.23,84.72Z" style="fill:#455a64"/><path d="M66.77,221.74a4.87,4.87,0,0,1-4-.17l-.77-.44a4.85,4.85,0,0,1-2.19-3.81v-46a4.42,4.42,0,0,1,.64-2.17l5.15,3a4.64,4.64,0,0,0-.65,2.17V220.3C64.94,221.56,65.74,222.14,66.77,221.74Z" style="fill:#263238"/><path d="M88.34,167.35c8.55-4.94,15.48-1.1,15.48,8.57s-6.94,21.44-15.49,26.28-15.5,1-15.5-8.58S79.79,172.28,88.34,167.35Z" style="fill:#f5f5f5"/><path d="M88.65,195.17a1.7,1.7,0,0,1-1.9.1L80,190.12c-.91-.68-.79-2.58.26-4.24s2.63-2.43,3.54-1.75l4.74,3.59,13.16-28.29c.82-1.77,2.39-3,3.51-2.65s1.36,2,.54,3.74l-15,32.3a5.42,5.42,0,0,1-1.92,2.29Z" style="fill:#47cbea"/><path d="M182.8,226.35V220a19.15,19.15,0,0,1-6.11-4.16c-3.54-3.3-7-8.65-10.85-13.1s-7-6.53-5.12-9.78a12,12,0,0,1,7.26-5c3.74-.67,8,1.16,12,4.13V143.53a12.34,12.34,0,0,1,5.58-9.66h0c3.08-1.78,5.58-.34,5.58,3.22v21.22s7.68-6.83,10.79-2.64c0,0,7.55-7.92,11-1.23,0,0,5.54-4.48,8,.72s1.29,16.17,0,22.94-5.37,23-5.37,23v6.33Z" style="fill:#47cbea"/><path d="M191.15,167.41s.7-9.67,4.25-12l-.12,0a22.9,22.9,0,0,0-4.13,2.84v-.19a.25.25,0,0,0,0,.19Z" style="fill:#36b2bf"/><path d="M201.94,155.66v8.86s1-9.11,3-11.31A18.74,18.74,0,0,0,201.94,155.66Z" style="fill:#36b2bf"/><path d="M212.9,154.44h0v8.88s.54-8.95,2.47-10.27A10,10,0,0,0,212.9,154.44Z" style="fill:#36b2bf"/><path d="M181.23,125.27h0c-.69.4-1.25.16-1.25-.53v-7a2.61,2.61,0,0,1,1.25-2h0c.69-.4,1.25-.16,1.25.53v7A2.61,2.61,0,0,1,181.23,125.27Z" style="fill:#ebebeb"/><path d="M170.73,136.35h0c-.49.85-1.28,1.3-1.77,1L164.9,135c-.49-.28-.49-1.19,0-2h0c.48-.85,1.28-1.31,1.77-1l4.06,2.35C171.22,134.58,171.22,135.5,170.73,136.35Z" style="fill:#ebebeb"/><path d="M166.38,150.88v.2A2.79,2.79,0,0,1,165,153.2l-5.56,3.22c-.75.42-1.35.17-1.35-.57v-.2a2.78,2.78,0,0,1,1.35-2.13l5.56-3.21C165.78,149.88,166.38,150.14,166.38,150.88Z" style="fill:#ebebeb"/><path d="M196.08,133.94v-.2a2.8,2.8,0,0,1,1.34-2.13L203,128.4c.74-.43,1.34-.17,1.34.57v.2A2.8,2.8,0,0,1,203,131.3l-5.57,3.21C196.68,134.94,196.08,134.68,196.08,133.94Z" style="fill:#ebebeb"/><path d="M191.73,124.23h0c-.49-.29-.49-1.2,0-2l4.06-7c.49-.85,1.29-1.31,1.78-1h0c.48.28.48,1.19,0,2l-4.07,7C193,124.05,192.22,124.51,191.73,124.23Z" style="fill:#ebebeb"/><path d="M349.92,289V287.9c-.45,1.34-2.53,7.08-5.69,10-2.51,2.29-5.93,4.93-6.8,7.49s4.76,3.54,7.11,3.13c2.72-.48,6.24-2,8.16-4.39,1.35-1.66,2.21-3.62,3.18-4.92s3.18-2.76,3.7-4.27c.29-.83-.05-2.64-.46-4.18s-.76-3-1.24-2.82c0,.17,0,.87,0,.87a6.32,6.32,0,0,1-4,1.34C352.73,290.16,349.91,289.93,349.92,289Z" style="fill:#263238"/><path d="M342,299.88c.78-.7,1.56-1.38,2.27-2,2.21-2,3.89-5.42,4.85-7.75a11,11,0,0,0,.84-4.19v-4.53h8v7.38h0v.2l0,0c-.39,1.65-4,6-6.11,8.92-1.39,1.92-4,4.37-7.19,4.79S340,302.14,342,299.88Z" style="fill:#ffa8a7"/><path d="M318.88,281.19v-1.13c-.45,1.33-2.53,7.08-5.69,10-2.51,2.29-5.93,4.93-6.8,7.48s4.76,3.55,7.11,3.13c2.72-.48,6.25-2,8.17-4.38,1.34-1.66,2.2-3.62,3.17-4.93s3.18-2.76,3.7-4.26c.29-.83-.05-2.65-.45-4.18s-.77-3-1.25-2.82v.86a6.31,6.31,0,0,1-4,1.35C321.69,282.31,318.87,282.08,318.88,281.19Z" style="fill:#263238"/><path d="M310.92,292c.78-.69,1.56-1.37,2.27-2,2.21-2,3.89-5.43,4.86-7.75a11,11,0,0,0,.83-4.19v-4.54h8v7.39h0v.19l0,0c-.39,1.66-4,6.06-6.11,8.92-1.39,1.93-4,4.37-7.19,4.79S309,294.3,310.92,292Z" style="fill:#ffa8a7"/><path d="M356.29,165.37c6.17,13.48-.22,60.94-.22,60.94.18,2.19,2.68,6.49,3.62,16.11,1.1,11.37-1.73,39.92-1.73,39.92a8.6,8.6,0,0,1-8,.32s-7.59-43-9-54.3c-1.25-9.87-3.64-31.56-3.64-31.56l-6.78,31.5a59,59,0,0,1,2.15,9.74c.64,6.65-5.8,37.61-5.8,37.61s-2.75,1-8,.24c0,0-2.28-41.08-2.88-49.09-1-13.46,2.56-55.43,5-63.4Z" style="fill:#37474f"/><path d="M337.27,196.8l-2-12.52s-8.47-1.75-12.31-5.36a21.9,21.9,0,0,0,10,6.65l2.25,9.64-3.94,29.17Z" style="fill:#263238"/><path d="M332.24,118.2a11.39,11.39,0,0,0-10.12,4.53l-15.37,20s-18-9-18.85-10.06-.39-3.22-.15-4.4.65-3.82.91-4.56c.47-1.3-1.45-.95-2.57.26s-1.63,3.57-2.19,4-4.84-4.51-6.91-6.89-3.05-4-4.44-3c-1,.71-.36,2.11,1.13,4.15a26.1,26.1,0,0,1,1.92,2.69c.18.36-.37.65-.59.85-.4.36-1.12,1-1.17,1.51a4.65,4.65,0,0,1,0,.92c-.2.68-1,1-1.27,1.66-.17.48,0,1-.08,1.51-.06.33-.24.62-.29.94a2.25,2.25,0,0,0,.66,1.75c1.46,1.73,3.45,2.39,5.36,3.45,1.59.88,3.23,1.26,5.06,2.08s23,15.52,26.4,13.67,20.7-22,20.7-22C335.34,122.9,332.24,118.2,332.24,118.2Z" style="fill:#ffa8a7"/><path d="M345.41,118.56h0c7.91.55,8.46,4.37,10.44,8.54a13.54,13.54,0,0,1,.38,10.2l-5.51,15.94s2.58,6.24,5.57,12.13c-13.83,7.72-31.1,3.66-35.26-2-.17-1.19.9-10.53,1.55-16.64-2.43-6.11-3.08-10-2.05-14,1.91-7.5,9.32-14.8,12.59-14.54Z" style="fill:#f5f5f5"/><path d="M337.81,112h3.07A16.17,16.17,0,0,0,357,95.84h0a16.26,16.26,0,0,0-16.25-16.25h-2.9a16.26,16.26,0,0,0-16.25,16.25h0A16.17,16.17,0,0,0,337.81,112Z" style="fill:#263238"/><path d="M365.7,120.53h0a9.55,9.55,0,0,1-9.55-9.55V90.53h0a9.55,9.55,0,0,1,9.55,9.55Z" style="fill:#263238"/><path d="M357.9,86.9l-2.4,3.85a2.2,2.2,0,0,0,3.12-.64A2.38,2.38,0,0,0,357.9,86.9Z" style="fill:#263238"/><path d="M327.46,86.75c-1.87,1.1-4.18,5.81-4,15.66.2,8.36,2.91,10.42,4.26,11s4,.23,6.54-.19v5s-3.53,4.09-3.3,6.39,5.08,2.84,8.38.6a21.32,21.32,0,0,0,5.41-5.67V107.45a3.2,3.2,0,0,0,4.54.43c2.81-1.87,2.92-6.49,1.28-8.16s-5.16-1.13-5.82,1.16c0,0-4.06.15-9.48-2.82A15.23,15.23,0,0,1,327.46,86.75Z" style="fill:#ffa8a7"/><path d="M333.77,100.32a1.07,1.07,0,0,0,1,1.14,1.09,1.09,0,0,0,1.11-1,1.05,1.05,0,1,0-2.1-.1Z" style="fill:#263238"/><path d="M332.55,107.4l-2.44.78a1.26,1.26,0,0,0,1.59.87A1.34,1.34,0,0,0,332.55,107.4Z" style="fill:#f28f8f"/><path d="M325.15,97.09l2.13-1.47a1.25,1.25,0,0,0-1.77-.37A1.38,1.38,0,0,0,325.15,97.09Z" style="fill:#263238"/><path d="M325.64,99.56a1.05,1.05,0,1,0,2.1.1,1.06,1.06,0,0,0-1-1.14A1.07,1.07,0,0,0,325.64,99.56Z" style="fill:#263238"/><polygon points="330.77 98.95 330.61 105.28 327.28 104.25 330.77 98.95" style="fill:#f28f8f"/><path d="M334.3,113.24c2.68-.36,8.21-1.94,9.07-4.13a5.61,5.61,0,0,1-1.94,2.79c-1.65,1.41-7.13,3-7.13,3Z" style="fill:#f28f8f"/><path d="M341.87,166.87a8.35,8.35,0,0,0,6.23-10.18,3.88,3.88,0,0,0-.14-.44,2.72,2.72,0,0,0-2.8-1.86h0a8,8,0,0,0,3.45-5.15l1.69-10a11.74,11.74,0,0,0-.43-4.85l5.56-6.43,1,.72a13.86,13.86,0,0,1-.22,8.61l-5.51,15.94s2.58,6.24,5.57,12.13a35.75,35.75,0,0,1-29.55,2A40.23,40.23,0,0,0,341.87,166.87Z" style="opacity:0.1"/><path d="M370.45,158.25c-7.18-29.35-12.49-39.14-21.22-39-2.54,3-1.84,12.23,2.19,17.81,0,0,9,18.93,10.4,25.66,1.26,5.92,2.68,13.35,2.59,18.44a3.62,3.62,0,0,1-1,2.41c-1.64,1.78-1.65,3.21-2.71,5.18-.83,1.53-1.74,2.11-1.48,2.45a2,2,0,0,0,2.69.2,9.71,9.71,0,0,0,2-2,20.29,20.29,0,0,1-1.62,5.45c-1.84,4.15-1.39,6.27,4.22,4.79,3.51-.92,5.71-3.85,6.24-12.29a65.24,65.24,0,0,0,.09-9.35C372.14,170,371.6,163,370.45,158.25Z" style="fill:#ffa8a7"/><path d="M299.21,242.16c.77-28.56-1.52-35.41-9.13-40.64l-2.95,16.55s3.47,19.51,3.1,26c-.33,5.71-.89,12.85-2.23,17.46a3.5,3.5,0,0,1-1.52,2c-1.93,1.21-2.72,2.46-4.17,4-1.15,1.2-2.12,1.5-2,1.88a1.89,1.89,0,0,0,2.41.85,13.9,13.9,0,0,0,2.75-1.49,17.42,17.42,0,0,1-2.82,4.84c-2.71,3.32-2.83,5.37,2.65,5.42,3.44,0,6.18-2.09,8.76-9.66a61.94,61.94,0,0,0,2.42-8.5C297.82,253.32,299.08,246.76,299.21,242.16Z" style="fill:#b16668"/><path d="M283.68,199.35a11,11,0,0,1,11.75,5.93c3.19,5.7,4,15.51,4.34,25.26,0,0-6.34,5.3-13.93,2.69Z" style="fill:#27debf"/><path d="M283.68,199.35a11,11,0,0,1,11.75,5.93c3.19,5.7,4,15.51,4.34,25.26,0,0-6.34,5.3-13.93,2.69Z" style="fill:#36b2bf"/><path d="M294.36,356.46c.58.22.72,1.32.81,3.5.07,1.65.42,4.54-1.51,5.11s-4.77.29-6-1.27c-1.55-1.94-2.6-3.66-4.81-6-1.91-2-4-4-4.76-6.86-.7-2.61-.12-3.74,1.66-4.49,2.45-1.05,6.29,2.36,8.21,2.9C289.6,349.78,293.78,356.25,294.36,356.46Z" style="fill:#263238"/><path d="M294.36,354.44v2.68a6.57,6.57,0,0,1-6.77.19c-.12-.26-.71-3.84-.71-3.84Z" style="fill:#b16668"/><path d="M272.65,371.91s.77,2.33,1.19,4.37c.33,1.62.8,4.33.23,5.55s-2.78,2-6.21,2c-2.22,0-5.69,1.49-8.06,2.81s-7.54,1.91-10.13,1.61c-3.06-.36-6.22-2.13-6.71-3.39s.16-2.58,7.35-5.65c.07,0,10-3.26,13.49-7.1Z" style="fill:#263238"/><path d="M272.65,369s0,2,0,3.13-1.33,2.83-4.8,2.71c-2.44-.09-4.15-.75-4.05-2.76v-2.9Z" style="fill:#b16668"/><path d="M296.1,318.87a72.42,72.42,0,0,0-3.16-14s1-12,1.42-23.46c.49-12.34,0-27.84.2-30.92,0,0-39.8-8.05-40.51,6.21s1.57,50.55,2,56.82,1.56,11.8,2.85,21.95,4.86,33.68,4.86,33.68a9.38,9.38,0,0,0,8.85-.18s2.81-28.51,2.51-35.74a61.8,61.8,0,0,0-2.74-15.77l1.42-22c.67-10.22,1.37-15.13,1.53-19.58l.86-.43s.87,17.65,1.34,23.91,1.47,12.27,3.28,23.9c1.57,10.1,6.25,31.45,6.25,31.45,4.55,2.46,7.26-.32,7.26-.32S297.33,327.63,296.1,318.87Z" style="fill:#37474f"/><path d="M275.37,275.93s9.65-4.76,14.49-9.05c0,0-4.49,6.32-10.38,9.12,0,0-2.1,21.92-2.08,21.49l-1.21-21.6Z" style="fill:#263238"/><polygon points="266.77 194.83 269.13 207.79 280.84 206.94 278.38 192.25 266.77 194.83" style="fill:#b16668"/><path d="M293.21,206c-1.16-3.52-5.64-7.36-10.11-6.53a131.87,131.87,0,0,0-19.6,4.9c-4.09,1.46-7.82,5-8.16,18.48,0,0-1.38,31.41-1.4,37.48,10.29,4.08,21,3.95,26.9,2.66,12.31-2.69,13.79-7.8,13.79-7.8s.16-22.59-.21-32.34C294.11,214.55,294,208.41,293.21,206Z" style="fill:#47cbea"/><path d="M257.74,179.07s-3,4.73-2.61,5.18,2.63.81,2.63.81Z" style="fill:#b16668"/><path d="M266,166c-6.2,1.45-7.93,4.23-8.29,14.12-.38,10.34.74,13.56,2.13,14.92.94.92,6,1,8.58.21,3.2-1,10.4-3.69,13.68-9,3.87-6.21,4.73-14.51.37-17.81C276.33,163.8,268.51,165.38,266,166Z" style="fill:#b16668"/><path d="M266.91,195.54c2.1-1.69,1.91-2.78,1.91-2.78-1.51,1.41-7.08,2.62-9,2.25C260.61,195.77,264.23,195.94,266.91,195.54Z" style="fill:#9a4a4d"/><path d="M257.76,168.54c1.82,3.11,5.77,4.6,5.77,4.6,1.18,1.35.53,6.63,2.62,7.47,0,0,.9-3.84,4.12-3.44s3.78,4.53,1.8,7.09-3.91,1.63-3.91,1.63.22,5.45,2.71,8.49c0,0,2.77.83,7.81-.36,3.09-.74,7.4-4.72,9.16-8.88,3.71-8.8,3.81-16.64-1.8-18.86-.69-4-3.89-5.73-7.51-6.48-7.8-1.6-12.82,3.26-18.82,2.84C256.28,162.4,255.64,164.9,257.76,168.54Z" style="fill:#263238"/><path d="M286.16,167.62l3.68-2.28a2.16,2.16,0,1,0-3.68,2.28Z" style="fill:#263238"/><path d="M263.82,204.3S258,205.38,255,210s-16.19,21.1-16.19,21.1-18.93-9.47-19.86-10.6-.4-3.39-.15-4.64.68-4,1-4.8c.49-1.36-1.53-1-2.71.28s-1.72,3.76-2.31,4.18-5.09-4.75-7.28-7.25-3.21-4.24-4.67-3.21c-1.06.74-.38,2.22,1.19,4.36a30.56,30.56,0,0,1,2,2.84c.19.38-.39.69-.62.9-.42.37-1.18,1-1.23,1.59a5.21,5.21,0,0,1-.06,1c-.2.71-1.09,1.05-1.33,1.74-.18.51,0,1.07-.09,1.6-.06.34-.25.65-.31,1a2.36,2.36,0,0,0,.7,1.84c1.53,1.82,3.63,2.52,5.65,3.63,1.67.93,3.4,1.33,5.32,2.19s24.61,17.62,28.15,15.67,21.68-23.15,21.68-23.15A14.66,14.66,0,0,0,263.82,204.3Z" style="fill:#b16668"/><path d="M265.85,203.62c-2.5.29-6-.18-10.91,5.09a153.22,153.22,0,0,0-11,14.19,13.89,13.89,0,0,0,11,10.33s8.58-8.79,11-13.63S268.8,206.89,265.85,203.62Z" style="fill:#27debf"/><path d="M265.85,203.62c-2.5.29-6-.18-10.91,5.09a153.22,153.22,0,0,0-11,14.19,13.89,13.89,0,0,0,11,10.33s8.58-8.79,11-13.63S268.8,206.89,265.85,203.62Z" style="fill:#36b2bf"/></svg>