<svg version="1.1" xmlns="http://www.w3.org/2000/svg" xmlns:xlink="http://www.w3.org/1999/xlink" viewBox="0 0 171 171"><g transform=""><g fill="none" fill-rule="nonzero" stroke="none" stroke-width="1" stroke-linecap="butt" stroke-linejoin="miter" stroke-miterlimit="10" stroke-dasharray="" stroke-dashoffset="0" font-family="none" font-weight="none" font-size="none" text-anchor="none" style="mix-blend-mode: normal"><path d="M0,171.99654v-171.99654h171.99654v171.99654z" fill="none"></path><g><path d="M148.27481,18.01913l-127.89375,43.75106c-2.66119,0.90844 -3.44494,4.29281 -1.45706,6.28069l84.02156,84.02156c1.98788,1.98788 5.37225,1.20413 6.28069,-1.45706l43.75106,-127.89375c1.00106,-2.91056 -1.78838,-5.7 -4.7025,-4.7025z" fill="#50e6ff"></path><path d="M60.93656,110.06344l42.009,42.009c1.98788,1.98788 5.37225,1.20413 6.28069,-1.45706l43.75106,-127.89375c0.50231,-1.4535 0.05344,-2.8785 -0.8835,-3.81544z" fill="#35c1f1"></path><path d="M135.375,35.625l-89.0625,59.81081v25.68919c0,1.9665 1.596,3.5625 3.5625,3.5625h25.68919z" fill="#199be2"></path></g><path d="" fill="none"></path><path d="" fill="none"></path><path d="" fill="none"></path></g></g></svg>